<svg width="90" height="103" viewBox="0 0 90 103" fill="none" xmlns="http://www.w3.org/2000/svg">
<g clip-path="url(#clip0_8:837)">
<path d="M26.61 33.65C26.61 33.65 25.19 25.82 26.84 20.34C27.1886 19.1805 27.8198 18.1258 28.6768 17.2705C29.5338 16.4152 30.5898 15.7862 31.75 15.44C31.8 15.44 32.62 9.95 43.89 9.54C55.16 9.13 64.08 13.92 61.89 33.68L59.08 38.15L43.78 23.38C43.78 23.38 30.68 31.86 29.52 35.88C28.36 39.9 26.61 33.65 26.61 33.65Z" fill="#FFF4E8"/>
<path d="M86.05 102.13H1.70999C1.70999 102.13 1.70999 77.39 5.54999 74.94C8.42114 73.4772 11.3958 72.2272 14.45 71.2C17.21 70.2 20.22 69.1 23.06 68.13C28.83 66.13 33.77 64.49 33.77 64.49H54C54 64.49 59.72 66.38 66 68.59C68.94 69.59 72 70.7 74.7 71.73C77.2692 72.6138 79.7694 73.6867 82.18 74.94C86.05 77.39 86.05 102.13 86.05 102.13Z" fill="#F5A784"/>
<path d="M53.99 64.49L44.49 66.09V66.35L43.7 66.23L42.93 66.35V66.09L33.77 64.49L34.27 60.5L35.36 51.72H52.07L52.99 57.94L53.99 64.49Z" fill="#F5A784"/>
<path d="M53 57.94C45.76 61.25 38.14 60.94 34.27 60.5L35.36 51.71H52.07L53 57.94Z" fill="#E0855C"/>
<path d="M58.39 37.35C58.39 37.35 59.78 31.84 63.25 34.28C66.72 36.72 63.25 44.78 58.36 44.73C58.36 44.73 57.06 39.33 58.39 37.35Z" fill="#F5A784"/>
<path d="M62.05 36.85C61.3421 37.1776 60.732 37.6843 60.28 38.32C59.7442 38.8721 59.3347 39.534 59.08 40.26C59.02 40.49 59.33 40.58 59.46 40.43C59.83 40.01 60.1 39.52 60.46 39.06C60.7399 39.3448 61.0822 39.5605 61.46 39.69C61.77 39.76 61.94 39.38 61.79 39.15C61.5611 38.8726 61.2698 38.6533 60.94 38.51C61.4409 38.1151 61.9061 37.6767 62.33 37.2C62.3623 37.1592 62.3797 37.1087 62.3796 37.0567C62.3795 37.0047 62.3617 36.9543 62.3292 36.9136C62.2967 36.873 62.2514 36.8446 62.2007 36.8331C62.15 36.8215 62.0969 36.8275 62.05 36.85Z" fill="#E0855C"/>
<path d="M29.44 36.83C29.44 36.83 28.05 31.32 24.58 33.76C21.11 36.2 24.58 44.25 29.47 44.21C29.47 44.21 30.77 38.81 29.44 36.83Z" fill="#F5A784"/>
<path d="M25.78 36.33C26.4879 36.6576 27.098 37.1643 27.55 37.8C28.0858 38.3521 28.4953 39.014 28.75 39.74C28.81 39.97 28.5 40.06 28.37 39.91C28 39.49 27.73 38.99 27.37 38.54C27.0922 38.8251 26.7489 39.038 26.37 39.16C26.07 39.24 25.89 38.85 26.05 38.63C26.275 38.3528 26.563 38.1333 26.89 37.99C26.396 37.5871 25.9314 37.1493 25.5 36.68C25.4677 36.6392 25.4502 36.5887 25.4504 36.5367C25.4505 36.4847 25.4683 36.4342 25.5008 36.3936C25.5333 36.353 25.5786 36.3246 25.6293 36.3131C25.68 36.3015 25.7331 36.3075 25.78 36.33Z" fill="#E0855C"/>
<path d="M59.1 30.47C55.85 14.87 43.88 16 43.88 16C43.88 16 31.88 14.91 28.67 30.51C27.4017 36.3065 27.8855 42.3492 30.06 47.87C32.17 53 36.22 58.6 43.88 58.6C51.54 58.6 55.6 53 57.71 47.83C59.8844 42.3092 60.3683 36.2665 59.1 30.47Z" fill="#F5A784"/>
<path d="M44.74 43C44.04 42.93 42.47 43.42 42.11 42.69C41.75 41.96 42.74 38.34 42.86 37.69C43.4055 35.5013 43.8328 33.2847 44.14 31.05C44.14 31.02 44.1296 30.9908 44.1105 30.9676C44.0915 30.9443 44.065 30.9284 44.0355 30.9225C44.006 30.9166 43.9754 30.9211 43.9489 30.9353C43.9224 30.9494 43.9015 30.9723 43.89 31C42.46 34.71 42.09 39.23 41.3 43.13C41.2892 43.1823 41.2906 43.2364 41.304 43.288C41.3173 43.3397 41.3423 43.3877 41.3771 43.4282C41.4118 43.4687 41.4554 43.5008 41.5044 43.5219C41.5535 43.543 41.6067 43.5526 41.66 43.55C42.66 43.48 43.66 43.65 44.66 43.6C45 43.59 45.1 43 44.74 43Z" fill="#E0855C"/>
<path d="M37.25 36C37.25 36 35.93 36.49 36.13 34.16C36.31 32.07 37.25 32.35 37.25 32.35C37.25 32.35 38.16 32.35 38.02 34.18C37.88 36.01 37.25 36 37.25 36Z" fill="#3B2645"/>
<path d="M49.8 36C49.8 36 48.49 36.49 48.69 34.16C48.87 32 49.8 32.3 49.8 32.3C49.8 32.3 50.72 32.3 50.58 34.13C50.44 35.96 49.8 36 49.8 36Z" fill="#3B2645"/>
<path d="M39 29.08C37.86 28.51 35.75 28.35 34.93 29.53C34.9012 29.5836 34.8865 29.6436 34.8871 29.7044C34.8878 29.7652 34.9039 29.8248 34.9338 29.8777C34.9638 29.9307 35.0066 29.9751 35.0584 30.007C35.1102 30.0389 35.1692 30.0571 35.23 30.06C35.79 30.06 36.29 29.75 36.85 29.71C37.4519 29.6845 38.053 29.7762 38.62 29.98C38.7321 30.0009 38.848 29.9828 38.9485 29.9288C39.0489 29.8748 39.1279 29.788 39.1723 29.683C39.2166 29.5779 39.2237 29.4608 39.1924 29.3511C39.1611 29.2414 39.0932 29.1458 39 29.08Z" fill="#3B2645"/>
<path d="M51.57 29.08C50.44 28.51 48.32 28.35 47.5 29.53C47.4712 29.5836 47.4565 29.6436 47.4571 29.7044C47.4578 29.7652 47.4739 29.8248 47.5038 29.8777C47.5338 29.9307 47.5766 29.9751 47.6284 30.007C47.6802 30.0389 47.7393 30.0571 47.8 30.06C48.36 30.06 48.86 29.75 49.42 29.71C50.0219 29.6845 50.6231 29.7762 51.19 29.98C51.307 30.0188 51.4343 30.0121 51.5465 29.9613C51.6588 29.9104 51.7478 29.8191 51.7957 29.7055C51.8437 29.592 51.8471 29.4645 51.8052 29.3486C51.7634 29.2327 51.6794 29.1368 51.57 29.08Z" fill="#3B2645"/>
<path d="M34.9 19C31.6369 23.52 29.3299 28.6581 28.12 34.1L26.61 31.45C26.61 31.45 29.09 16.88 34.9 19Z" fill="#FFF4E8"/>
<path d="M48.32 46.84C47.0704 47.6364 45.6534 48.1327 44.18 48.29C42.8259 48.257 41.4898 47.9722 40.24 47.45C40.1958 47.4394 40.1494 47.4435 40.1077 47.4615C40.0661 47.4796 40.0314 47.5106 40.0088 47.5501C39.9863 47.5895 39.9772 47.6352 39.9828 47.6802C39.9884 47.7253 40.0085 47.7673 40.04 47.8C42.22 49.88 46.69 49.43 48.65 47.27C48.707 47.2262 48.7443 47.1616 48.7537 47.0904C48.7631 47.0191 48.7437 46.947 48.7 46.89C48.6783 46.8618 48.6513 46.8381 48.6205 46.8203C48.5897 46.8025 48.5556 46.7909 48.5203 46.7863C48.4491 46.7769 48.377 46.7962 48.32 46.84Z" fill="#E0855C"/>
<path d="M34.9 19C34.9 19 56.06 25 63.15 11.84C63.15 11.84 60.07 13.43 51.81 10.37C43.55 7.31001 34.9 19 34.9 19Z" fill="#FFF4E8"/>
<path d="M74.73 71.73C74.16 77.12 72.92 90.15 72.73 102.13H16.46C16.3 89.73 14.98 76.21 14.46 71.2C17.22 70.2 20.23 69.1 23.07 68.13C27.41 82.3 41 82.8 44.25 82.72C44.25 82.72 44.39 82.72 44.62 82.72H44.98C48.22 82.84 61.53 82.35 66.03 68.63C69 69.61 72 70.7 74.73 71.73Z" fill="#DADEEA"/>
</g>
<defs>
<clipPath id="clip0_8:837">
<rect width="89.01" height="102.13" fill="white"/>
</clipPath>
</defs>
</svg>
