<svg width="90" height="103" viewBox="0 0 90 103" fill="none" xmlns="http://www.w3.org/2000/svg">
<g clip-path="url(#clip0_8:885)">
<path d="M30.22 21.82C30.22 21.82 17.67 51 39.35 56.25C69.23 63.49 67.72 22.46 59.19 15.12C50.66 7.78001 30.22 21.82 30.22 21.82Z" fill="#3B2645"/>
<path d="M27 33.66C27 33.66 25.58 25.82 27.22 20.34C27.5695 19.1794 28.2022 18.1239 29.061 17.2685C29.9199 16.4132 30.9779 15.7848 32.14 15.44C32.14 15.44 33 10 44.26 9.54C55.52 9.08 64.45 13.92 62.26 33.68L59.45 38.15L44.16 23.38C44.16 23.38 31.06 31.86 29.9 35.88C28.74 39.9 27 33.66 27 33.66Z" fill="#3B2645"/>
<path d="M86.42 102.13H2.08997C2.08997 102.13 2.08997 77.39 5.92997 74.94C8.37997 73.38 19.3 69.52 26.81 66.94C31.02 65.51 34.15 64.47 34.15 64.47H54.36C54.36 64.47 57.08 65.36 60.85 66.65C68.36 69.2 80.03 73.29 82.59 74.92C86.42 77.39 86.42 102.13 86.42 102.13Z" fill="#F5A784"/>
<path d="M54.36 64.49L44.87 66.09V66.35L44.08 66.23L43.3 66.35V66.09L34.15 64.49L34.65 60.5L35.73 51.72H52.44L53.37 57.94L54.36 64.49Z" fill="#F5A784"/>
<path d="M53.37 57.94C46.14 61.25 38.52 60.94 34.65 60.5L35.73 51.71H52.44L53.37 57.94Z" fill="#E0855C"/>
<path d="M58.76 37.35C58.76 37.35 60.16 31.84 63.62 34.28C67.08 36.72 63.62 44.78 58.74 44.73C58.74 44.73 57.44 39.33 58.76 37.35Z" fill="#F5A784"/>
<path d="M62.43 36.85C61.7203 37.1748 61.1095 37.682 60.66 38.32C60.1245 38.8742 59.7122 39.5353 59.45 40.26C59.4 40.49 59.71 40.58 59.84 40.43C60.2 40.01 60.48 39.52 60.84 39.06C61.1225 39.3415 61.4641 39.5567 61.84 39.69C62.14 39.76 62.31 39.38 62.16 39.15C61.9329 38.8749 61.6455 38.6559 61.32 38.51C61.8155 38.1123 62.2771 37.6742 62.7 37.2C62.7464 37.1642 62.7767 37.1114 62.7842 37.0533C62.7917 36.9952 62.7758 36.9364 62.74 36.89C62.7042 36.8436 62.6514 36.8133 62.5933 36.8058C62.5351 36.7983 62.4764 36.8142 62.43 36.85Z" fill="#E0855C"/>
<path d="M29.8199 36.83C29.8199 36.83 28.4299 31.32 24.9999 33.76C21.5699 36.2 24.9999 44.25 29.8799 44.21C29.8399 44.21 31.1499 38.81 29.8199 36.83Z" fill="#F5A784"/>
<path d="M26.1599 36.33C26.8678 36.6576 27.478 37.1643 27.9299 37.8C28.4625 38.3546 28.8715 39.0158 29.1299 39.74C29.1899 39.97 28.8699 40.06 28.7399 39.91C28.3799 39.49 28.0999 38.99 27.7399 38.54C27.4629 38.8261 27.1194 39.0391 26.7399 39.16C26.4399 39.24 26.2699 38.85 26.4199 38.63C26.6488 38.3526 26.9401 38.1333 27.2699 37.99C26.7714 37.5923 26.3065 37.1541 25.8799 36.68C25.8477 36.6392 25.8302 36.5887 25.8303 36.5367C25.8305 36.4847 25.8482 36.4342 25.8807 36.3936C25.9132 36.353 25.9585 36.3246 26.0092 36.3131C26.0599 36.3015 26.1131 36.3075 26.1599 36.33Z" fill="#E0855C"/>
<path d="M59.4799 30.47C56.2199 14.87 44.2599 16 44.2599 16C44.2599 16 32.2999 14.87 28.9999 30.47C27.7348 36.2675 28.2221 42.3102 30.3999 47.83C32.5399 53 36.5999 58.6 44.2599 58.6C51.9199 58.6 55.9999 53 58.0899 47.83C60.2597 42.3081 60.7434 36.2668 59.4799 30.47Z" fill="#F5A784"/>
<path d="M45.1199 43C44.4199 42.93 42.8399 43.42 42.4799 42.69C42.1199 41.96 43.1099 38.34 43.2399 37.69C43.7818 35.501 44.2057 33.2845 44.5099 31.05C44.5099 31.02 44.4995 30.9908 44.4805 30.9676C44.4614 30.9443 44.4349 30.9284 44.4054 30.9225C44.376 30.9166 44.3454 30.9211 44.3188 30.9353C44.2923 30.9494 44.2715 30.9723 44.2599 31C42.8399 34.71 42.4599 39.23 41.6799 43.13C41.6694 43.1814 41.6706 43.2346 41.6834 43.2855C41.6963 43.3364 41.7204 43.3838 41.754 43.4241C41.7876 43.4645 41.8298 43.4967 41.8776 43.5185C41.9254 43.5403 41.9774 43.5511 42.0299 43.55C43.0299 43.48 44.0299 43.65 45.0299 43.6C45.3999 43.59 45.4699 43 45.1199 43Z" fill="#E0855C"/>
<path d="M37.6199 36C37.6199 36 36.3099 36.49 36.5099 34.16C36.6899 32.07 37.6199 32.35 37.6199 32.35C37.6199 32.35 38.5399 32.35 38.3999 34.18C38.2599 36.01 37.6199 36 37.6199 36Z" fill="#3B2645"/>
<path d="M50.1799 36C50.1799 36 48.8599 36.49 49.0599 34.16C49.2399 32.07 50.1799 32.35 50.1799 32.35C50.1799 32.35 51.0899 32.35 50.9499 34.18C50.8099 36.01 50.1799 36 50.1799 36Z" fill="#3B2645"/>
<path d="M39.39 29.08C38.26 28.51 36.15 28.35 35.32 29.53C35.2912 29.5836 35.2765 29.6436 35.2771 29.7044C35.2778 29.7652 35.2938 29.8248 35.3238 29.8777C35.3538 29.9307 35.3966 29.9751 35.4484 30.007C35.5002 30.0389 35.5592 30.0571 35.62 30.06C36.19 30.06 36.68 29.75 37.25 29.71C37.8467 29.6914 38.4412 29.79 39 30C39.122 30.0517 39.2595 30.0529 39.3824 30.0032C39.5052 29.9535 39.6033 29.857 39.655 29.735C39.7067 29.613 39.7078 29.4755 39.6581 29.3526C39.6084 29.2298 39.512 29.1317 39.39 29.08Z" fill="#3B2645"/>
<path d="M51.9399 29.08C50.8099 28.51 48.6999 28.35 47.8799 29.53C47.8511 29.5836 47.8364 29.6436 47.8371 29.7044C47.8377 29.7652 47.8538 29.8248 47.8837 29.8777C47.9137 29.9307 47.9566 29.9751 48.0084 30.007C48.0602 30.0389 48.1192 30.0571 48.1799 30.06C48.7399 30.06 49.2399 29.75 49.7999 29.71C50.4018 29.6845 51.003 29.7762 51.5699 29.98C51.6854 30.0121 51.8087 30.0008 51.9164 29.9481C52.0241 29.8954 52.1088 29.8051 52.1544 29.6942C52.2 29.5833 52.2033 29.4596 52.1638 29.3464C52.1243 29.2332 52.0446 29.1384 51.9399 29.08Z" fill="#3B2645"/>
<path d="M35.27 19C32.0122 23.5219 29.7088 28.6595 28.5 34.1L27 31.49C27 31.49 29.46 16.88 35.27 19Z" fill="#3B2645"/>
<path d="M40.3799 38.14H31.6499C31.2892 38.14 30.9433 37.9967 30.6883 37.7417C30.4332 37.4866 30.2899 37.1407 30.2899 36.78V32.21C30.2899 31.8493 30.4332 31.5034 30.6883 31.2483C30.9433 30.9933 31.2892 30.85 31.6499 30.85H40.3799C40.7406 30.85 41.0865 30.9933 41.3416 31.2483C41.5966 31.5034 41.7399 31.8493 41.7399 32.21V36.78C41.7399 37.1407 41.5966 37.4866 41.3416 37.7417C41.0865 37.9967 40.7406 38.14 40.3799 38.14ZM31.6499 31.6C31.4889 31.6026 31.3353 31.6677 31.2214 31.7815C31.1076 31.8954 31.0425 32.049 31.0399 32.21V36.78C31.0399 36.9418 31.1042 37.0969 31.2186 37.2113C31.333 37.3257 31.4881 37.39 31.6499 37.39H40.3799C40.5417 37.39 40.6969 37.3257 40.8113 37.2113C40.9256 37.0969 40.9899 36.9418 40.9899 36.78V32.21C40.9899 32.0482 40.9256 31.8931 40.8113 31.7787C40.6969 31.6643 40.5417 31.6 40.3799 31.6H31.6499Z" fill="#FF0066"/>
<path d="M55.81 38.14H47.08C46.7193 38.14 46.3734 37.9967 46.1183 37.7417C45.8633 37.4866 45.72 37.1407 45.72 36.78V32.21C45.72 31.8493 45.8633 31.5034 46.1183 31.2483C46.3734 30.9933 46.7193 30.85 47.08 30.85H55.81C56.1707 30.85 56.5166 30.9933 56.7716 31.2483C57.0267 31.5034 57.17 31.8493 57.17 32.21V36.78C57.17 37.1407 57.0267 37.4866 56.7716 37.7417C56.5166 37.9967 56.1707 38.14 55.81 38.14ZM47.08 31.6C46.9182 31.6 46.763 31.6643 46.6486 31.7787C46.5342 31.8931 46.47 32.0482 46.47 32.21V36.78C46.47 36.9418 46.5342 37.0969 46.6486 37.2113C46.763 37.3257 46.9182 37.39 47.08 37.39H55.81C55.9718 37.39 56.1269 37.3257 56.2413 37.2113C56.3557 37.0969 56.42 36.9418 56.42 36.78V32.21C56.42 32.0482 56.3557 31.8931 56.2413 31.7787C56.1269 31.6643 55.9718 31.6 55.81 31.6H47.08Z" fill="#FF0066"/>
<path d="M46.1 34.12H40.98V34.87H46.1V34.12Z" fill="#FF0066"/>
<path d="M35.2699 19C35.2699 19 42.4399 22.69 56.3699 22.5L59.4499 18.13C59.4499 18.13 50.3499 9.71001 42.3699 12.56C34.3899 15.41 35.2699 19 35.2699 19Z" fill="#3B2645"/>
<path d="M62.5899 71.17L43.5099 100.33L26.4199 71.63C26.4199 71.63 48.8699 76.08 62.7299 70.4L62.5899 71.17Z" fill="#DADEEA"/>
<path d="M86.42 102.13H2.08997C2.08997 102.13 2.08997 77.39 5.92997 74.94C8.23997 73.47 18.07 69.94 25.48 67.41L26.81 67L43.86 93.48L45 91.65L60.83 66.65C61.38 66.84 61.94 67.03 62.53 67.25C69.99 69.78 80.2 73.42 82.53 74.92C86.42 77.39 86.42 102.13 86.42 102.13Z" fill="#9669A4"/>
<path d="M42.94 44.22C42.94 44.22 36.6 44.82 36.49 49.03C36.38 53.24 35 57.61 42.94 58.6C50.88 59.59 51.08 53.25 51.45 50.6C51.82 47.95 50.54 44.06 42.94 44.22Z" fill="#3B2645"/>
<path d="M40.81 51.27C40.3878 50.9859 40.0728 50.5687 39.9152 50.0848C39.7575 49.601 39.7662 49.0783 39.94 48.6C40.37 47.38 40.94 47.15 43.13 46.76C47.34 45.99 48.35 48.76 47.82 50.29C47.56 51.05 43.15 52.33 40.81 51.27Z" fill="#F5A784"/>
<path d="M45.5 48C44.7696 48.2963 43.9881 48.4458 43.2 48.44C42.5818 48.3127 41.9508 48.259 41.32 48.28C41.2989 48.2876 41.2796 48.2995 41.2634 48.315C41.2473 48.3305 41.2345 48.3492 41.226 48.37C41.2175 48.3907 41.2135 48.413 41.2142 48.4354C41.2149 48.4578 41.2202 48.4798 41.23 48.5C41.4892 48.7601 41.8034 48.9589 42.1495 49.0818C42.4955 49.2046 42.8647 49.2484 43.23 49.21C44.1254 49.2573 45.0187 49.0821 45.83 48.7C46.18 48.55 45.91 47.89 45.5 48Z" fill="#E0855C"/>
<path d="M43.8599 93.48L23.5599 78.33C23.5599 78.33 26.3799 67.1 26.8099 67L43.8599 93.48Z" fill="#704E7A"/>
<path d="M64.51 78.33L43.86 93.48L60.86 66.67C61.4 66.86 64.51 78.33 64.51 78.33Z" fill="#704E7A"/>

</g>
<defs>
<clipPath id="clip0_8:885">
<rect width="89.01" height="102.13" fill="white"/>
</clipPath>
</defs>
</svg>
