<svg width="90" height="103" viewBox="0 0 90 103" fill="none" xmlns="http://www.w3.org/2000/svg">
<g clip-path="url(#clip0_8:462)">
<path d="M26.88 45.8C25.93 44.57 25.29 43.07 24.08 42.1C23.208 41.5837 22.3787 40.9985 21.6 40.35C19.6 38.14 21.49 34.58 20.99 31.63C20.64 29.57 19.08 27.58 19.76 25.63C20.25 24.24 21.7 23.44 22.57 22.25C24.43 19.69 23.7 15.25 26.57 13.93C27.22 13.63 27.95 13.56 28.57 13.27C30.73 12.32 31.25 9.41 33.14 8C35.71 6.08 39.61 7.68 42.49 6.25C43.49 5.76 44.27 4.93 45.29 4.52C48.13 3.36 51.1 5.69 54.11 6.25C56.28 6.66 59.11 6.51 59.93 8.57C60.18 9.24 60.11 9.99 60.31 10.67C60.96 12.94 63.98 13.44 65.55 15.19C67.33 17.19 66.91 20.26 67.94 22.71C68.84 24.85 70.88 26.71 70.55 29.01C70.33 30.48 69.16 31.64 68.83 33.08C68.45 34.71 69.14 36.6 68.22 37.99C67.83 38.57 67.22 38.99 66.91 39.61C66.7233 40.1234 66.6219 40.6639 66.61 41.21C66.4027 42.2889 65.9635 43.31 65.323 44.2026C64.6824 45.0952 63.8558 45.8381 62.9 46.38C60.9888 47.4501 58.9299 48.2319 56.79 48.7C55.5659 49.1325 54.2554 49.2628 52.97 49.08C51.36 48.72 50.08 47.37 48.45 47.14C45.91 46.77 43.87 49.14 41.5 50.06C40.3513 50.5064 39.1043 50.638 37.8877 50.4411C36.6712 50.2442 35.5293 49.726 34.58 48.94C32.05 46.75 29 48.48 26.88 45.8Z" fill="#3B2645"/>
<path d="M27.63 33.65C27.63 33.65 26.22 25.82 27.86 20.33C28.211 19.1712 28.8443 18.1177 29.703 17.2642C30.5618 16.4107 31.6191 15.7839 32.78 15.44C32.78 15.44 33.65 9.94999 44.91 9.53999C56.17 9.12999 65.1 13.92 62.91 33.68L60.09 38.15L44.81 23.38C44.81 23.38 31.7 31.86 30.55 35.88C29.4 39.9 27.63 33.65 27.63 33.65Z" fill="#3B2645"/>
<path d="M87.07 102.12H2.73999C2.73999 102.12 2.73999 77.39 6.56999 74.94C8.99999 73.43 19.3 69.75 26.77 67.2L27.29 67.02C31.57 65.56 34.8 64.49 34.8 64.49H55C55 64.49 57.8 65.42 61.64 66.73L62.21 66.92C69.73 69.48 80.75 73.37 83.21 74.92C87.07 77.39 87.07 102.12 87.07 102.12Z" fill="#9C4345"/>
<path d="M55.01 64.49L45.5201 66.09V66.35L44.73 66.22L43.9501 66.35V66.09L34.8 64.49L35.3 60.49L36.3801 51.71H53.09L54.0201 57.94L55.01 64.49Z" fill="#9C4345"/>
<path d="M54 57.94C46.77 61.25 39.15 60.94 35.27 60.49L36.36 51.71H53.09L54 57.94Z" fill="#753233"/>
<path d="M59.4099 37.35C59.4099 37.35 60.7999 31.84 64.2699 34.28C67.7399 36.72 64.2699 44.77 59.3899 44.73C59.3899 44.73 58.0799 39.33 59.4099 37.35Z" fill="#9C4345"/>
<path d="M63.0699 36.85C62.362 37.1776 61.7519 37.6843 61.2999 38.32C60.7673 38.8746 60.3583 39.5358 60.0999 40.26C60.0399 40.49 60.3599 40.58 60.4899 40.43C60.8499 40.01 61.1299 39.51 61.4899 39.06C61.7669 39.3461 62.1105 39.5591 62.4899 39.68C62.7899 39.76 62.9599 39.37 62.8099 39.15C62.5811 38.8726 62.2898 38.6533 61.9599 38.51C62.4585 38.1123 62.9234 37.6741 63.3499 37.2C63.3822 37.1592 63.3997 37.1087 63.3996 37.0567C63.3994 37.0047 63.3816 36.9542 63.3492 36.9136C63.3167 36.873 63.2714 36.8446 63.2207 36.8331C63.17 36.8215 63.1168 36.8275 63.0699 36.85Z" fill="#753233"/>
<path d="M30.47 36.83C30.47 36.83 29.07 31.31 25.61 33.76C22.15 36.21 25.61 44.25 30.49 44.21C30.49 44.21 31.79 38.81 30.47 36.83Z" fill="#9C4345"/>
<path d="M26.81 36.33C27.5124 36.6574 28.1185 37.1602 28.57 37.79C29.1096 38.3641 29.5219 39.0456 29.78 39.79C29.78 40.01 29.52 40.11 29.39 39.96C29.03 39.53 28.75 39.04 28.39 38.59C28.1098 38.8721 27.7673 39.0845 27.39 39.21C27.09 39.29 26.92 38.9 27.07 38.68C27.2989 38.4026 27.5902 38.1833 27.92 38.04C27.4239 37.6395 26.9592 37.2016 26.53 36.73C26.5038 36.7116 26.4814 36.6882 26.4642 36.6612C26.4469 36.6342 26.4352 36.604 26.4296 36.5724C26.424 36.5409 26.4247 36.5085 26.4317 36.4772C26.4386 36.4459 26.4516 36.4163 26.47 36.39C26.4884 36.3637 26.5118 36.3414 26.5388 36.3241C26.5659 36.3069 26.596 36.2952 26.6276 36.2896C26.6592 36.284 26.6915 36.2847 26.7228 36.2917C26.7541 36.2986 26.7838 36.3116 26.81 36.33Z" fill="#753233"/>
<path d="M60.12 30.47C56.87 14.87 44.91 16 44.91 16C44.91 16 32.91 14.91 29.69 30.51C28.4223 36.3065 28.9061 42.349 31.08 47.87C33.19 53 37.24 58.59 44.91 58.59C52.58 58.59 56.62 53 58.73 47.83C60.9092 42.3103 61.3932 36.2661 60.12 30.47Z" fill="#9C4345"/>
<path d="M45.76 43C45.06 42.93 43.49 43.42 43.13 42.69C42.77 41.96 43.76 38.33 43.89 37.69C44.4329 35.5046 44.8569 33.2913 45.16 31.06C45.16 31.0299 45.1495 31.0008 45.1305 30.9776C45.1114 30.9543 45.0849 30.9384 45.0555 30.9325C45.026 30.9266 44.9954 30.9311 44.9689 30.9452C44.9423 30.9594 44.9215 30.9823 44.91 31.01C43.49 34.72 43.11 39.24 42.33 43.14C42.3195 43.1914 42.3206 43.2446 42.3335 43.2955C42.3463 43.3464 42.3704 43.3938 42.404 43.4341C42.4376 43.4745 42.4799 43.5067 42.5276 43.5285C42.5754 43.5503 42.6275 43.5611 42.68 43.56C43.68 43.49 44.68 43.66 45.68 43.61C46.05 43.59 46.12 43 45.76 43Z" fill="#753233"/>
<path d="M40 47.45H49.61C49.61 47.45 47.81 50.86 44.81 50.86C41.81 50.86 40 47.45 40 47.45Z" fill="white"/>
<path d="M38.2699 36C38.2699 36 36.9599 36.49 37.1599 34.16C37.3399 32.07 38.2699 32.35 38.2699 32.35C38.2699 32.35 39.1899 32.35 39.0499 34.17C38.9099 35.99 38.2699 36 38.2699 36Z" fill="#3B2645"/>
<path d="M50.83 36C50.83 36 49.51 36.49 49.71 34.16C49.89 32.07 50.83 32.35 50.83 32.35C50.83 32.35 51.74 32.35 51.6 34.17C51.46 35.99 50.83 36 50.83 36Z" fill="#3B2645"/>
<path d="M39.9999 29.08C38.8699 28.51 36.75 28.35 35.93 29.53C35.9006 29.5828 35.8854 29.6424 35.8859 29.7028C35.8864 29.7633 35.9025 29.8226 35.9327 29.8749C35.9629 29.9273 36.0062 29.971 36.0583 30.0016C36.1104 30.0323 36.1695 30.049 36.2299 30.05C36.7899 30.05 37.2899 29.75 37.8499 29.71C38.4519 29.6845 39.053 29.7762 39.6199 29.98C39.7321 30.0009 39.848 29.9828 39.9484 29.9288C40.0489 29.8748 40.1278 29.788 40.1722 29.683C40.2166 29.5779 40.2237 29.4608 40.1924 29.3511C40.161 29.2414 40.0931 29.1458 39.9999 29.08Z" fill="#3B2645"/>
<path d="M52.59 29.08C51.46 28.51 49.35 28.35 48.52 29.53C48.4902 29.5836 48.4751 29.644 48.476 29.7053C48.4769 29.7666 48.4939 29.8266 48.5253 29.8792C48.5567 29.9319 48.6014 29.9754 48.6549 30.0053C48.7083 30.0353 48.7687 30.0507 48.83 30.05C49.39 30.05 49.88 29.75 50.45 29.71C51.0487 29.6837 51.6467 29.7755 52.21 29.98C52.327 30.0188 52.4543 30.0121 52.5666 29.9613C52.6788 29.9104 52.7678 29.8191 52.8158 29.7055C52.8637 29.592 52.8671 29.4645 52.8253 29.3486C52.7834 29.2327 52.6994 29.1368 52.59 29.08Z" fill="#3B2645"/>
<path d="M35.92 19C35.92 19 43.05 20.46 47.92 17.77C52.79 15.08 61 28.93 60.72 34.68L62.24 28.13L54.93 14.29L41.03 13.29C41.03 13.29 34.58 16.75 35.92 19Z" fill="#3B2645"/>
<path d="M35.92 19C32.6579 23.5243 30.351 28.6654 29.14 34.11L27.63 31.46C27.63 31.46 30.11 16.88 35.92 19Z" fill="#3B2645"/>
<path d="M87.07 102.12H2.73999C2.73999 102.12 2.73999 77.39 6.56999 74.94C8.99999 73.43 19.3 69.75 26.77 67.2L27.29 67.02L44.5 93.8L45.68 91.92L61.68 66.73L62.25 66.92C69.77 69.48 80.79 73.37 83.25 74.92C87.07 77.39 87.07 102.12 87.07 102.12Z" fill="#2F8DBD"/>
<path d="M44.5 93.8L23.71 78.28C23.71 78.28 25.92 69.51 26.77 67.2L27.29 67.02L44.5 93.8Z" fill="#23698C"/>
<path d="M65.65 78.28L44.5 93.8L61.65 66.73L62.22 66.92C63.21 69.29 65.65 78.28 65.65 78.28Z" fill="#23698C"/>
<path d="M36.67 39.19H36.06C32.39 38.98 30.25 36.76 29.89 32.77C29.8609 32.4411 29.9005 32.1097 30.0064 31.797C30.1122 31.4842 30.282 31.1969 30.5049 30.9533C30.7278 30.7097 30.999 30.5152 31.3011 30.382C31.6033 30.2489 31.9298 30.1801 32.26 30.18H40.63C40.9613 30.1815 41.2888 30.2516 41.5917 30.3858C41.8946 30.52 42.1664 30.7155 42.39 30.96C42.6123 31.2001 42.7808 31.4848 42.8843 31.7952C42.9877 32.1056 43.0238 32.4345 42.99 32.76C42.84 34.37 42.39 39.19 36.67 39.19ZM32.26 31.19C32.0686 31.1891 31.8792 31.2284 31.7039 31.3052C31.5286 31.382 31.3713 31.4947 31.2423 31.6361C31.1132 31.7774 31.0152 31.9442 30.9545 32.1257C30.8938 32.3072 30.8719 32.4995 30.89 32.69C31.2 36.14 33 38 36.12 38.18C40.85 38.44 41.74 35.37 42 32.65C42.0139 32.4682 41.99 32.2854 41.9298 32.1133C41.8695 31.9412 41.7743 31.7835 41.65 31.65C41.5242 31.5083 41.3704 31.3943 41.1983 31.3151C41.0261 31.236 40.8395 31.1934 40.65 31.19H32.26Z" fill="#2F8DBD"/>
<path d="M52.8 39.19H52.19C48.51 39 46.38 36.75 46 32.76C45.9709 32.4311 46.0105 32.0997 46.1164 31.787C46.2222 31.4742 46.392 31.1869 46.6149 30.9433C46.8378 30.6997 47.1089 30.5052 47.4111 30.372C47.7133 30.2389 48.0398 30.1701 48.37 30.17H56.74C57.0728 30.1713 57.4018 30.2413 57.7063 30.3755C58.0109 30.5097 58.2845 30.7053 58.51 30.95C58.7281 31.1928 58.8939 31.478 58.9971 31.7876C59.1004 32.0973 59.1388 32.4249 59.11 32.75C59 34.37 58.51 39.19 52.8 39.19ZM48.38 31.19C48.1896 31.188 48.0009 31.2257 47.8259 31.3007C47.6509 31.3757 47.4934 31.4864 47.3636 31.6256C47.2337 31.7649 47.1343 31.9297 47.0717 32.1095C47.0091 32.2893 46.9847 32.4802 47 32.67C47.32 36.14 49.08 38 52.23 38.18C56.95 38.44 57.86 35.36 58.11 32.65C58.1277 32.4687 58.1066 32.2857 58.048 32.1133C57.9893 31.9408 57.8946 31.7829 57.77 31.65C57.6427 31.5102 57.4885 31.3974 57.3167 31.3184C57.145 31.2394 56.959 31.1957 56.77 31.19H48.38Z" fill="#2F8DBD"/>
<path d="M46.81 31.7H42.53V32.7H46.81V31.7Z" fill="#2F8DBD"/>
<path d="M60.25 43.26C60.25 43.1141 60.3079 42.9742 60.4111 42.8711C60.5142 42.7679 60.6541 42.71 60.8 42.71C60.9459 42.71 61.0858 42.7679 61.1889 42.8711C61.2921 42.9742 61.35 43.1141 61.35 43.26C61.35 43.4059 61.2921 43.5458 61.1889 43.6489C61.0858 43.7521 60.9459 43.81 60.8 43.81C60.7278 43.81 60.6563 43.7958 60.5895 43.7681C60.5228 43.7405 60.4622 43.7 60.4111 43.6489C60.36 43.5978 60.3195 43.5372 60.2919 43.4705C60.2642 43.4037 60.25 43.3322 60.25 43.26Z" fill="white"/>
</g>
<defs>
<clipPath id="clip0_8:462">
<rect width="89.01" height="102.12" fill="white"/>
</clipPath>
</defs>
</svg>
