<svg width="90" height="103" viewBox="0 0 90 103" fill="none" xmlns="http://www.w3.org/2000/svg">
<g clip-path="url(#clip0_8:492)">
<path d="M27 33.65C27 33.65 25.58 25.82 27.22 20.33C27.5709 19.1712 28.2042 18.1178 29.063 17.2642C29.9218 16.4107 30.9791 15.7839 32.14 15.44C32.14 15.44 33 10 44.26 9.54C55.52 9.08 64.45 13.92 62.26 33.68L59.45 38.15L44.16 23.38C44.16 23.38 31.06 31.86 29.9 35.88C28.74 39.9 27 33.65 27 33.65Z" fill="#8C3D3D"/>
<path d="M86.42 102.12H2.08997C2.08997 102.12 2.08997 77.39 5.92997 74.94C7.92997 73.69 15.31 70.94 22.04 68.6C23.8 67.98 25.51 67.4 27.04 66.88C31.11 65.49 34.12 64.5 34.12 64.5H54.36C54.36 64.5 57.51 65.5 61.74 66.97C64.07 67.77 66.74 68.69 69.36 69.62C75.2 71.71 80.89 73.87 82.59 74.94C86.42 77.39 86.42 102.12 86.42 102.12Z" fill="#F5A784"/>
<path d="M54.36 64.5L45.91 65.91L44.86 66.08V66.35L44.08 66.22L43.52 66.32L43.31 66.35V66.08L34.15 64.5L34.38 62.64L34.65 60.49L35.73 51.71H52.44L53.37 57.94L53.94 61.75L54.36 64.5Z" fill="#F5A784"/>
<path d="M53.37 57.94C46.14 61.25 38.52 60.94 34.65 60.49L35.73 51.71H52.44L53.37 57.94Z" fill="#E0855C"/>
<path d="M58.76 37.35C58.76 37.35 60.16 31.84 63.62 34.28C67.08 36.72 63.62 44.77 58.74 44.73C58.74 44.73 57.44 39.33 58.76 37.35Z" fill="#F5A784"/>
<path d="M62.43 36.85C61.7203 37.1748 61.1095 37.682 60.66 38.32C60.1245 38.8742 59.7122 39.5353 59.45 40.26C59.4 40.49 59.71 40.58 59.84 40.43C60.2 40.01 60.48 39.51 60.84 39.06C61.1202 39.3421 61.4627 39.5545 61.84 39.68C62.14 39.76 62.31 39.37 62.16 39.15C61.9329 38.8749 61.6455 38.6559 61.32 38.51C61.8131 38.1096 62.2745 37.6717 62.7 37.2C62.7464 37.1642 62.7767 37.1114 62.7842 37.0533C62.7917 36.9952 62.7758 36.9364 62.74 36.89C62.7042 36.8436 62.6514 36.8133 62.5933 36.8058C62.5351 36.7983 62.4764 36.8142 62.43 36.85Z" fill="#E0855C"/>
<path d="M29.8199 36.83C29.8199 36.83 28.4299 31.31 24.9999 33.76C21.5699 36.21 24.9999 44.25 29.8799 44.21C29.8399 44.21 31.1499 38.81 29.8199 36.83Z" fill="#F5A784"/>
<path d="M26.16 36.33C26.8653 36.6571 27.4747 37.1598 27.93 37.79C28.4667 38.3645 28.8756 39.0461 29.13 39.79C29.19 40.01 28.87 40.11 28.74 39.96C28.38 39.53 28.1 39.04 27.74 38.59C27.463 38.8761 27.1194 39.0891 26.74 39.21C26.44 39.29 26.27 38.9 26.42 38.68C26.6489 38.4026 26.9402 38.1833 27.27 38.04C26.7738 37.6395 26.3091 37.2016 25.88 36.73C25.827 36.6929 25.7908 36.6362 25.7796 36.5724C25.7683 36.5087 25.7829 36.443 25.82 36.39C25.8571 36.337 25.9138 36.3008 25.9776 36.2896C26.0413 36.2783 26.107 36.2929 26.16 36.33Z" fill="#E0855C"/>
<path d="M59.48 30.47C56.22 14.87 44.26 16 44.26 16C44.26 16 32.3 14.87 29 30.47C27.7355 36.2675 28.2228 42.3101 30.4 47.83C32.54 53 36.6 58.59 44.26 58.59C51.92 58.59 56 53 58.09 47.83C60.2597 42.3081 60.7435 36.2668 59.48 30.47Z" fill="#F5A784"/>
<path d="M45.1199 43C44.4199 42.93 42.8399 43.42 42.4799 42.69C42.1199 41.96 43.1099 38.33 43.2399 37.69C43.7829 35.5046 44.2068 33.2913 44.5099 31.06C44.5099 31.0299 44.4995 31.0008 44.4805 30.9776C44.4614 30.9543 44.4349 30.9384 44.4054 30.9325C44.376 30.9266 44.3454 30.9311 44.3188 30.9453C44.2923 30.9594 44.2715 30.9823 44.2599 31.01C42.8399 34.72 42.4599 39.24 41.6799 43.14C41.6694 43.1914 41.6706 43.2446 41.6834 43.2955C41.6963 43.3464 41.7204 43.3938 41.754 43.4341C41.7876 43.4745 41.8298 43.5067 41.8776 43.5285C41.9254 43.5503 41.9774 43.5611 42.0299 43.56C43.0299 43.49 44.0299 43.66 45.0299 43.61C45.3999 43.59 45.4699 43 45.1199 43Z" fill="#E0855C"/>
<path d="M37.6199 36C37.6199 36 36.3099 36.49 36.5099 34.16C36.6899 32.07 37.6199 32.35 37.6199 32.35C37.6199 32.35 38.5399 32.35 38.3999 34.17C38.2599 35.99 37.6199 36 37.6199 36Z" fill="#3B2645"/>
<path d="M50.1799 36C50.1799 36 48.8599 36.49 49.0599 34.16C49.2399 32.07 50.1799 32.35 50.1799 32.35C50.1799 32.35 51.0899 32.35 50.9499 34.17C50.8099 35.99 50.1799 36 50.1799 36Z" fill="#3B2645"/>
<path d="M39.39 29.08C38.26 28.51 36.15 28.35 35.32 29.53C35.2906 29.5828 35.2754 29.6424 35.2759 29.7028C35.2764 29.7633 35.2925 29.8226 35.3227 29.875C35.3529 29.9273 35.3962 29.971 35.4483 30.0016C35.5004 30.0323 35.5595 30.049 35.62 30.05C36.19 30.05 36.68 29.75 37.25 29.71C37.8466 29.6914 38.4412 29.79 39 30C39.122 30.0517 39.2595 30.0529 39.3823 30.0032C39.5052 29.9535 39.6032 29.857 39.655 29.735C39.7067 29.613 39.7078 29.4755 39.6581 29.3526C39.6084 29.2298 39.512 29.1317 39.39 29.08Z" fill="#3B2645"/>
<path d="M51.94 29.08C50.81 28.51 48.7 28.35 47.88 29.53C47.8507 29.5828 47.8355 29.6424 47.8359 29.7028C47.8364 29.7633 47.8526 29.8226 47.8828 29.875C47.913 29.9273 47.9562 29.971 48.0083 30.0016C48.0604 30.0323 48.1196 30.049 48.18 30.05C48.74 30.05 49.24 29.75 49.8 29.71C50.4019 29.6845 51.0031 29.7762 51.57 29.98C51.6855 30.0121 51.8088 30.0008 51.9165 29.9481C52.0242 29.8954 52.1089 29.8051 52.1545 29.6942C52.2001 29.5833 52.2034 29.4596 52.1639 29.3464C52.1244 29.2332 52.0447 29.1384 51.94 29.08Z" fill="#3B2645"/>
<path d="M35.27 19C35.27 19 42.4 20.46 47.27 17.77C52.14 15.08 60.27 28.9 60.08 34.65L61.61 28.1L54.28 14.29L40.39 13.29C40.39 13.29 33.93 16.75 35.27 19Z" fill="#8C3D3D"/>
<path d="M35.27 19C32.0094 23.535 29.706 28.6863 28.5 34.14L27 31.49C27 31.49 29.46 16.88 35.27 19Z" fill="#8C3D3D"/>
<path d="M43.5299 44.7C43.5299 44.7 37.1899 45.29 37.0799 49.51C36.9699 53.73 35.5899 58.09 43.5299 59.07C51.4699 60.05 51.6699 53.72 52.0299 51.07C52.3899 48.42 51.1299 44.53 43.5299 44.7Z" fill="#8C3D3D"/>
<path d="M41.4 51.74C40.9772 51.4588 40.6615 51.0434 40.5037 50.5609C40.3459 50.0783 40.3551 49.5567 40.53 49.08C40.96 47.85 41.53 47.63 43.72 47.24C47.93 46.47 48.94 49.24 48.41 50.77C48.15 51.53 43.74 52.8 41.4 51.74Z" fill="#F5A784"/>
<path d="M46.09 48.52C45.358 48.8107 44.5776 48.96 43.79 48.96C43.1733 48.8229 42.541 48.7691 41.91 48.8C41.8878 48.8061 41.8674 48.8172 41.8502 48.8324C41.833 48.8476 41.8195 48.8666 41.8109 48.8879C41.8022 48.9091 41.7985 48.9321 41.8 48.955C41.8016 48.9779 41.8084 49.0001 41.82 49.02C42.0797 49.2789 42.3942 49.4762 42.7404 49.5974C43.0865 49.7186 43.4555 49.7605 43.82 49.72C44.7155 49.7673 45.6087 49.5921 46.42 49.21C46.77 49 46.5 48.37 46.09 48.52Z" fill="#E0855C"/>
<path d="M69.36 69.62L51 86.56L25.33 83.31L22 68.6C23.76 67.98 25.47 67.4 27 66.88C31.07 65.49 34.08 64.5 34.08 64.5L34.32 62.64C36.7111 62.7563 39.0484 63.391 41.17 64.5C41.9311 64.9263 42.628 65.4583 43.24 66.08L43.45 66.32C43.843 66.7484 44.1791 67.2256 44.45 67.74C44.8626 67.0878 45.3346 66.4752 45.86 65.91C46.3062 65.4033 46.791 64.9319 47.31 64.5C49.1594 62.914 51.462 61.9516 53.89 61.75L54.31 64.5C54.31 64.5 57.46 65.5 61.69 66.97C64.07 67.77 66.73 68.69 69.36 69.62Z" fill="white"/>
<path d="M86.42 102.12H2.08997C2.08997 102.12 2.08997 77.39 5.92997 74.94C7.92997 73.69 15.31 70.94 22.04 68.6C23.8 67.98 25.51 67.4 27.04 66.88C28.76 72.01 33.54 82.18 44.39 82.18C55.24 82.18 60 72.12 61.74 67C64.07 67.8 66.74 68.72 69.36 69.65C75.2 71.74 80.89 73.9 82.59 74.97C86.42 77.39 86.42 102.12 86.42 102.12Z" fill="#FF0066"/>
<path d="M45.57 77C45.4289 76.8832 45.2531 76.8164 45.07 76.81H45C44.7348 76.81 44.4804 76.9154 44.2929 77.1029C44.1054 77.2904 44 77.5448 44 77.81V77.9C44.0024 78.0692 44.0477 78.235 44.1317 78.3819C44.2156 78.5288 44.3355 78.652 44.48 78.74C44.6252 78.8283 44.7893 78.8807 44.9587 78.893C45.1282 78.9052 45.2981 78.877 45.4545 78.8105C45.6108 78.7441 45.7491 78.6413 45.8579 78.5108C45.9667 78.3803 46.0428 78.2258 46.08 78.06C46.1342 77.8515 46.1127 77.6306 46.0193 77.4365C45.9259 77.2424 45.7667 77.0877 45.57 77Z" fill="#B8C3E3"/>
<path d="M45.57 70.86C45.4324 70.7361 45.2551 70.6652 45.07 70.66H45C44.7348 70.66 44.4804 70.7654 44.2929 70.9529C44.1054 71.1404 44 71.3948 44 71.66V71.75C44.0024 71.9192 44.0477 72.085 44.1317 72.2319C44.2156 72.3788 44.3355 72.502 44.48 72.59C44.6245 72.6783 44.7879 72.731 44.9567 72.7439C45.1256 72.7568 45.2951 72.7294 45.4512 72.664C45.6074 72.5985 45.7459 72.497 45.8552 72.3677C45.9645 72.2383 46.0415 72.0849 46.08 71.92C46.1363 71.7115 46.1158 71.4897 46.0221 71.2952C45.9285 71.1006 45.768 70.9461 45.57 70.86Z" fill="#B8C3E3"/>
</g>
<defs>
<clipPath id="clip0_8:492">
<rect width="89.01" height="102.12" fill="white"/>
</clipPath>
</defs>
</svg>
