<svg width="90" height="101" viewBox="0 0 90 101" fill="none" xmlns="http://www.w3.org/2000/svg">
<g clip-path="url(#clip0_8:737)">
<path d="M26.66 31.88C26.66 31.88 25.25 24.04 26.89 18.56C27.2412 17.4002 27.8744 16.3456 28.733 15.4905C29.5916 14.6353 30.6488 14.0064 31.81 13.66C31.81 13.66 32.68 8.18 43.94 7.76C55.2 7.34 64.13 12.14 61.94 31.91L59.12 36.38L43.83 21.61C43.83 21.61 30.73 30.08 29.58 34.11C28.43 38.14 26.66 31.88 26.66 31.88Z" fill="#E36C29"/>
<path d="M54 62.71C52.91 62.97 52 66.71 51.58 67.71L49.05 74C48.26 75.91 47.26 78 45.31 78.67C44.5649 78.8635 43.7841 78.8745 43.0339 78.7022C42.2836 78.5298 41.5859 78.1792 41 77.68C39.8174 76.6816 38.8365 75.4665 38.11 74.1C36.4244 71.347 35.0811 68.3985 34.11 65.32C33.42 63.06 34.11 61.03 34.39 58.72L35.48 49.94H52.12L53.05 56.16C53.38 58.34 53.66 60.54 54 62.71Z" fill="#F5A784"/>
<path d="M58.44 35.57C58.44 35.57 59.83 30.06 63.3 32.5C66.77 34.94 63.3 43 58.42 43C58.42 43 57.11 37.55 58.44 35.57Z" fill="#F5A784"/>
<path d="M62.1 35.07C61.3921 35.3976 60.7819 35.9043 60.33 36.54C59.7891 37.1113 59.3795 37.7939 59.13 38.54C59.07 38.76 59.39 38.86 59.52 38.71C59.88 38.28 60.16 37.79 60.52 37.34C60.7997 37.6227 61.1424 37.8351 61.52 37.96C61.82 38.03 61.99 37.65 61.84 37.43C61.6117 37.1495 61.3205 36.9268 60.99 36.78C61.4909 36.385 61.9561 35.9467 62.38 35.47C62.433 35.4329 62.4691 35.3762 62.4804 35.3124C62.4916 35.2487 62.4771 35.183 62.44 35.13C62.4028 35.077 62.3462 35.0408 62.2824 35.0296C62.2186 35.0183 62.153 35.0329 62.1 35.07Z" fill="#E0855C"/>
<path d="M29.4999 35.05C29.4999 35.05 28.0999 29.54 24.6399 32C21.1799 34.46 24.6399 42.5 29.5199 42.45C29.5199 42.43 30.8199 37 29.4999 35.05Z" fill="#F5A784"/>
<path d="M25.83 34.55C26.5373 34.8692 27.1478 35.3694 27.6 36C28.144 36.5707 28.5569 37.2533 28.81 38C28.86 38.22 28.55 38.32 28.42 38.17C28.06 37.74 27.78 37.25 27.42 36.79C27.1401 37.0748 26.7977 37.2905 26.42 37.42C26.12 37.49 25.95 37.11 26.1 36.88C26.3299 36.6079 26.6166 36.3895 26.94 36.24C26.4445 35.8424 25.9829 35.4042 25.56 34.93C25.5096 34.8942 25.4755 34.8398 25.4652 34.7789C25.4549 34.718 25.4692 34.6554 25.505 34.605C25.5408 34.5546 25.5952 34.5205 25.6561 34.5102C25.7171 34.4999 25.7796 34.5142 25.83 34.55Z" fill="#E0855C"/>
<path d="M59.1499 28.69C55.8999 13.09 43.9399 14.19 43.9399 14.19C43.9399 14.19 31.9399 13.09 28.7199 28.69C27.4516 34.4865 27.9355 40.5292 30.1099 46.05C32.2199 51.24 36.2699 56.82 43.9399 56.82C51.6099 56.82 55.6499 51.24 57.7599 46.05C59.9392 40.5303 60.4231 34.4862 59.1499 28.69Z" fill="#F5A784"/>
<path d="M44.72 39.74C44.02 39.68 42.45 40.13 42.09 39.48C41.73 38.83 42.74 35.66 42.87 35.09C43.429 33.1755 43.8698 31.2285 44.19 29.26C44.19 29.15 43.99 29.1 43.94 29.21C42.49 32.48 42.09 36.46 41.28 39.89C41.2716 39.9383 41.2747 39.9878 41.2892 40.0347C41.3036 40.0815 41.329 40.1242 41.3631 40.1593C41.3973 40.1945 41.4393 40.221 41.4857 40.2367C41.532 40.2525 41.5815 40.2571 41.63 40.25C42.63 40.19 43.63 40.33 44.63 40.25C45 40.27 45.08 39.77 44.72 39.74Z" fill="#E0855C"/>
<path d="M37.3 34.17C37.3 34.17 35.99 34.66 36.19 32.34C36.37 30.24 37.3 30.52 37.3 30.52C37.3 30.52 38.22 30.52 38.08 32.35C37.94 34.18 37.3 34.17 37.3 34.17Z" fill="#3B2645"/>
<path d="M49.85 34.17C49.85 34.17 48.54 34.66 48.74 32.34C48.92 30.24 49.85 30.52 49.85 30.52C49.85 30.52 50.77 30.52 50.63 32.35C50.49 34.18 49.85 34.17 49.85 34.17Z" fill="#3B2645"/>
<path d="M39.07 27.31C37.94 26.73 35.82 26.58 35 27.75C34.9682 27.8031 34.951 27.8637 34.9502 27.9256C34.9494 27.9875 34.9651 28.0485 34.9956 28.1024C35.0261 28.1563 35.0703 28.2011 35.1238 28.2323C35.1773 28.2635 35.2381 28.28 35.3 28.28C35.86 28.28 36.36 27.98 36.92 27.93C37.5219 27.9045 38.1231 27.9962 38.69 28.2C39.21 28.37 39.57 27.56 39.07 27.31Z" fill="#3B2645"/>
<path d="M51.62 27.31C50.49 26.73 48.38 26.58 47.55 27.75C47.5181 27.8031 47.5009 27.8637 47.5001 27.9256C47.4994 27.9875 47.515 28.0485 47.5455 28.1024C47.576 28.1563 47.6203 28.2011 47.6738 28.2323C47.7272 28.2635 47.788 28.28 47.85 28.28C48.42 28.28 48.91 27.98 49.48 27.93C50.0786 27.9037 50.6767 27.9955 51.24 28.2C51.353 28.2283 51.4725 28.2153 51.5769 28.1635C51.6813 28.1116 51.7637 28.0243 51.8095 27.9171C51.8553 27.8099 51.8613 27.6899 51.8266 27.5786C51.7919 27.4673 51.7186 27.3721 51.62 27.31Z" fill="#3B2645"/>
<path d="M35 17.26C31.7369 21.7801 29.4299 26.9181 28.22 32.36L26.71 29.72C26.71 29.72 29.14 15.11 35 17.26Z" fill="#E36C29"/>
<path d="M86.06 100.36H1.71997C1.71997 100.36 1.71997 75.61 5.55997 73.18C5.81753 73.0174 6.08468 72.8704 6.35997 72.74C11.36 70.19 29.49 64.14 33.14 62.94L38.6 70.38L43.89 76L48.68 70.92L54 62.72L54.15 62.77C56 63.37 73.06 69 79.91 72C80.55 72.29 81.11 72.54 81.55 72.77C81.81 72.9 82.04 73.04 82.22 73.15C86.06 75.61 86.06 100.36 86.06 100.36Z" fill="#2F8DBD"/>
<path d="M41.27 66.86L43.89 76L46.37 66.86L52.37 71.43L44.19 80.72L38.05 73C38.05 73 37.84 67.28 41.27 66.86Z" fill="#2F8DBD"/>
<path d="M29.37 64.2L34.21 59.33L41.27 66.86L37.09 73.59L29.37 64.2Z" fill="#23698C"/>
<path d="M58.27 64.2L53.44 59.33L46.38 66.86L50.56 73.59L58.27 64.2Z" fill="#23698C"/>
<path d="M11 100.36H1.71997C1.71997 100.36 1.71997 75.61 5.55997 73.18C5.81753 73.0174 6.08468 72.8704 6.35997 72.74C8.21997 76.43 10.7 84.31 11 100.36Z" fill="#B8C3E3"/>
<path d="M86.06 100.36H76.89C77.24 84.36 79.68 76.51 81.55 72.8C81.81 72.93 82.04 73.07 82.22 73.18C86.06 75.61 86.06 100.36 86.06 100.36Z" fill="#B8C3E3"/>
<path d="M44.65 95.67C44.5098 95.5439 44.3286 95.4728 44.14 95.47H44C43.7436 95.4828 43.5019 95.5938 43.325 95.78C43.1482 95.9662 43.0497 96.2132 43.05 96.47V96.56C43.0464 96.7304 43.0891 96.8985 43.1737 97.0465C43.2582 97.1945 43.3814 97.3166 43.53 97.4C43.6745 97.4883 43.8379 97.541 44.0067 97.5539C44.1756 97.5668 44.3451 97.5394 44.5013 97.474C44.6575 97.4085 44.7959 97.307 44.9052 97.1777C45.0145 97.0483 45.0916 96.8949 45.13 96.73C45.1864 96.5251 45.1693 96.3069 45.0816 96.1133C44.9939 95.9196 44.8412 95.7628 44.65 95.67Z" fill="#B8C3E3"/>
<path d="M34.9999 17.26C34.9999 17.26 56.4999 26.26 63.0999 7.74001C63.0999 7.74001 57.7899 12.74 49.2099 9.33001C40.6299 5.92001 29.7099 12.91 34.9999 17.26Z" fill="#E36C29"/>
<path d="M36.7999 43.81C35.4699 45.81 35.9499 49.27 36.1099 51.48C36.2299 53.09 36.6999 55.84 38.2699 56.74C39.6899 57.55 42.2699 57.68 43.8999 57.74C45.4675 57.9487 47.0605 57.6435 48.4399 56.87C51.7299 54.7 52.2099 50.12 51.8999 46.62C51.863 45.5687 51.5786 44.5408 51.0699 43.62C49.5099 41.18 45.2299 42.37 42.8199 42.16C40.9099 41.99 38.3799 41.86 37.0199 43.5C36.9404 43.5988 36.867 43.7023 36.7999 43.81Z" fill="#E36C29"/>
<path d="M40.72 44.66C41.0442 44.5588 41.3806 44.5016 41.72 44.49L45.39 44.16C46.1771 43.9899 46.9995 44.1258 47.69 44.54C48.1196 44.9738 48.4148 45.5225 48.54 46.12C48.6286 46.3165 48.6745 46.5295 48.6745 46.745C48.6745 46.9605 48.6286 47.1736 48.54 47.37C48.3053 47.6528 47.9738 47.8381 47.61 47.89C45.2411 48.4907 42.7758 48.6097 40.36 48.24C38.41 47.94 39.32 45.14 40.72 44.66Z" fill="#F5A784"/>
<path d="M41.24 46.17C41.2293 46.1747 41.2202 46.1824 41.2138 46.1921C41.2074 46.2019 41.204 46.2133 41.204 46.225C41.204 46.2367 41.2074 46.2481 41.2138 46.2579C41.2202 46.2676 41.2293 46.2753 41.24 46.28C41.2507 46.2753 41.2598 46.2676 41.2662 46.2579C41.2726 46.2481 41.276 46.2367 41.276 46.225C41.276 46.2133 41.2726 46.2019 41.2662 46.1921C41.2598 46.1824 41.2507 46.1747 41.24 46.17Z" fill="#E0855C"/>
<path d="M45.77 45.17C44.9548 45.4946 44.1112 45.7424 43.25 45.91C42.52 45.91 41.81 45.64 41.1 45.75C41.01 45.75 41 45.88 41.05 45.94C42.05 47.07 45.14 46.64 46.05 45.57C46.103 45.5329 46.1391 45.4762 46.1504 45.4124C46.1616 45.3487 46.1471 45.283 46.11 45.23C46.0728 45.177 46.0161 45.1408 45.9524 45.1296C45.8886 45.1183 45.823 45.1329 45.77 45.17Z" fill="#E0855C"/>
</g>
<defs>
<clipPath id="clip0_8:737">
<rect width="89.01" height="100.36" fill="white"/>
</clipPath>
</defs>
</svg>
