<svg width="90" height="102" viewBox="0 0 90 102" fill="none" xmlns="http://www.w3.org/2000/svg">
<g clip-path="url(#clip0_8:1043)">
<path d="M27.63 33.43C27.63 33.43 26.22 25.6 27.86 20.12C28.56 17.77 31.06 9.29 44.86 9.32C56.13 9.32 65.05 13.7 62.86 33.46L60.1 37.93L44.81 23.16C44.81 23.16 31.7 31.64 30.55 35.66C29.4 39.68 27.63 33.43 27.63 33.43Z" fill="#3B2645"/>
<path d="M55.01 64.27L53.34 72.98L49.69 77.12L45.9501 82.27L43.9501 80.74L41.0601 76.21L34.8 64.27L35.3 60.27L36.3801 51.49H53.09L54.0201 57.72L55.01 64.27Z" fill="#9C4345"/>
<path d="M54 57.72C46.77 61.03 39.15 60.72 35.28 60.28L36.36 51.49H53.09L54 57.72Z" fill="#753233"/>
<path d="M59.4099 37.13C59.4099 37.13 60.7999 31.62 64.2699 34.06C67.7399 36.5 64.2699 44.56 59.3899 44.51C59.3899 44.51 58.0799 39.11 59.4099 37.13Z" fill="#9C4345"/>
<path d="M63.0699 36.63C62.362 36.9576 61.7519 37.4643 61.2999 38.1C60.7721 38.6429 60.3633 39.2901 60.0999 40C60.0399 40.23 60.3599 40.32 60.4899 40.17C60.8499 39.75 61.1299 39.25 61.4899 38.8C61.7691 39.0857 62.1117 39.3016 62.4899 39.43C62.7899 39.5 62.9599 39.11 62.8099 38.89C62.5811 38.6126 62.2898 38.3933 61.9599 38.25C62.4492 37.8706 62.9074 37.4526 63.3299 37C63.3675 36.9616 63.3904 36.9113 63.3947 36.8578C63.3991 36.8043 63.3845 36.7509 63.3537 36.707C63.3228 36.6631 63.2775 36.6313 63.2257 36.6172C63.1739 36.6032 63.1188 36.6077 63.0699 36.63Z" fill="#753233"/>
<path d="M30.47 36.61C30.47 36.61 29.07 31.1 25.61 33.54C22.15 35.98 25.61 44 30.49 44C30.49 44 31.79 38.59 30.47 36.61Z" fill="#9C4345"/>
<path d="M26.81 36.11C27.5124 36.4374 28.1185 36.9402 28.57 37.57C29.1096 38.1441 29.5219 38.8256 29.78 39.57C29.78 39.79 29.52 39.89 29.39 39.74C29.03 39.31 28.75 38.82 28.39 38.37C28.1098 38.6521 27.7673 38.8645 27.39 38.99C27.09 39.07 26.92 38.68 27.07 38.46C27.2989 38.1826 27.5902 37.9633 27.92 37.82C27.4215 37.4223 26.9566 36.9841 26.53 36.51C26.477 36.4729 26.4409 36.4162 26.4296 36.3524C26.4184 36.2887 26.4329 36.223 26.47 36.17C26.5072 36.117 26.5638 36.0808 26.6276 36.0696C26.6914 36.0583 26.757 36.0729 26.81 36.11Z" fill="#753233"/>
<path d="M60.65 39.76C60.5001 41.2726 60.2292 42.7707 59.84 44.24C59.5565 45.3888 59.1889 46.5152 58.74 47.61C56.62 52.79 52.57 58.37 44.9 58.37C37.23 58.37 33.19 52.79 31.08 47.61C30.108 45.1956 29.4753 42.6581 29.2 40.07C28.8388 36.7882 29.0042 33.4697 29.69 30.24C32.94 14.65 44.9 15.74 44.9 15.74C44.9 15.74 56.9 14.65 60.12 30.24C60.7799 33.3679 60.9586 36.5782 60.65 39.76Z" fill="#9C4345"/>
<path d="M45.7199 41.8C45.0199 41.74 43.4399 42.2 43.0799 41.53C42.7199 40.86 43.7299 37.53 43.8599 36.93C44.4066 34.9191 44.8406 32.8793 45.1599 30.82C45.1599 30.71 44.9599 30.66 44.9099 30.77C43.4699 34.19 43.0799 38.35 42.2799 41.95C42.2723 41.9991 42.2758 42.0492 42.2902 42.0967C42.3047 42.1443 42.3296 42.1879 42.3633 42.2244C42.3969 42.261 42.4384 42.2894 42.4845 42.3077C42.5307 42.326 42.5804 42.3336 42.6299 42.33C43.6299 42.26 44.6299 42.41 45.6299 42.33C45.9999 42.35 46.0699 41.83 45.7199 41.8Z" fill="#753233"/>
<path d="M38.2699 35.73C38.2699 35.73 36.9599 36.22 37.1599 33.89C37.3399 31.8 38.2699 32.08 38.2699 32.08C38.2699 32.08 39.1899 32.08 39.0499 33.9C38.9099 35.72 38.2699 35.73 38.2699 35.73Z" fill="#3B2645"/>
<path d="M50.83 35.73C50.83 35.73 49.51 36.22 49.71 33.89C49.89 31.8 50.83 32.08 50.83 32.08C50.83 32.08 51.74 32.08 51.6 33.9C51.46 35.72 50.83 35.73 50.83 35.73Z" fill="#3B2645"/>
<path d="M39.9999 28.86C38.8699 28.29 36.75 28.13 35.93 29.31C35.9006 29.3628 35.8854 29.4224 35.8859 29.4828C35.8864 29.5433 35.9025 29.6026 35.9327 29.655C35.9629 29.7073 36.0062 29.751 36.0583 29.7816C36.1104 29.8123 36.1695 29.829 36.2299 29.83C36.7899 29.83 37.2899 29.53 37.8499 29.49C38.4519 29.4645 39.053 29.5562 39.6199 29.76C39.7321 29.7809 39.848 29.7628 39.9484 29.7088C40.0489 29.6548 40.1278 29.568 40.1722 29.463C40.2166 29.3579 40.2237 29.2408 40.1924 29.1311C40.161 29.0214 40.0931 28.9258 39.9999 28.86Z" fill="#3B2645"/>
<path d="M52.59 28.86C51.46 28.29 49.35 28.13 48.52 29.31C48.4902 29.3636 48.4751 29.424 48.476 29.4853C48.4769 29.5466 48.4939 29.6066 48.5253 29.6592C48.5567 29.7119 48.6014 29.7554 48.6549 29.7854C48.7083 29.8153 48.7687 29.8307 48.83 29.83C49.39 29.83 49.88 29.53 50.45 29.49C51.0487 29.4637 51.6467 29.5555 52.21 29.76C52.327 29.7988 52.4543 29.7921 52.5666 29.7413C52.6788 29.6904 52.7678 29.5991 52.8158 29.4855C52.8637 29.372 52.8671 29.2445 52.8253 29.1286C52.7834 29.0127 52.6994 28.9168 52.59 28.86Z" fill="#3B2645"/>
<path d="M35.92 18.81C32.6579 23.3343 30.351 28.4754 29.14 33.92L27.63 31.27C27.63 31.27 30.11 16.66 35.92 18.81Z" fill="#3B2645"/>
<path d="M35.92 18.81C41.0602 20.0181 46.3502 20.4628 51.62 20.13C60.38 19.57 60.1 18 60.1 18L46 12.36C46 12.36 33.41 15 35.92 18.81Z" fill="#3B2645"/>
<path d="M60.65 39.76C60.5001 41.2726 60.2292 42.7707 59.84 44.24C59.5565 45.3888 59.1889 46.5152 58.74 47.61C56.62 52.79 52.57 58.37 44.9 58.37C37.23 58.37 33.19 52.79 31.08 47.61C30.108 45.1956 29.4753 42.6581 29.2 40.07L30.3799 39.76C31.9999 42.34 34 46.19 36.75 46.44C45.95 38.44 53.18 47.07 53.18 47.07C56.5499 46.54 59.18 39.76 59.18 39.76H60.65Z" fill="#3B2645"/>
<path d="M41.0599 46.41H48.5499C48.5499 46.41 47.1499 49.07 44.8099 49.07C42.4699 49.07 41.0599 46.41 41.0599 46.41Z" fill="white"/>
<path d="M87.07 101.9H2.73999C2.73999 101.9 2.73999 77.16 6.56999 74.72C6.77999 74.59 7.03999 74.45 7.36999 74.28C12.37 71.74 30.51 65.69 34.15 64.48L39.61 71.93L44.91 77.55L49.69 72.46L55 64.27H55.16C56.97 64.86 74.07 70.53 80.91 73.53C81.56 73.81 82.11 74.07 82.55 74.3C82.7795 74.4118 83.0031 74.5353 83.22 74.67C87.07 77.16 87.07 101.9 87.07 101.9Z" fill="#DADEEA"/>
<path d="M42.29 68.41L44.91 77.55L47.39 68.41L53.39 72.98L45.2 82.27L39.11 74.52C39.11 74.52 38.85 68.83 42.29 68.41Z" fill="#DADEEA"/>
<path d="M30.39 65.74L35.22 60.88L42.28 68.41L38.1 75.13L30.39 65.74Z" fill="#B8C3E3"/>
<path d="M59.29 65.74L54.45 60.88L47.39 68.41L51.58 75.13L59.29 65.74Z" fill="#B8C3E3"/>
<path d="M12.06 101.9H2.73999C2.73999 101.9 2.73999 77.16 6.56999 74.72C6.77999 74.59 7.03999 74.45 7.36999 74.28C9.22999 78 11.71 85.86 12.06 101.9Z" fill="#B8C3E3"/>
<path d="M87.07 101.9H77.9C78.25 85.9 80.7 78.06 82.56 74.35C82.7895 74.4618 83.0132 74.5853 83.23 74.72C87.07 77.16 87.07 101.9 87.07 101.9Z" fill="#B8C3E3"/>
<path d="M56.88 90.56C56.88 90.56 63 85.16 69 85.16C69 85.16 71.3 86.07 70.84 93.32L56.88 90.56Z" fill="white"/>
<path d="M73.34 90.56L72.93 101.9H55.01V90.56H73.34Z" fill="#B8C3E3"/>
</g>
<defs>
<clipPath id="clip0_8:1043">
<rect width="89.01" height="101.9" fill="white"/>
</clipPath>
</defs>
</svg>
