<svg width="90" height="102" viewBox="0 0 90 102" fill="none" xmlns="http://www.w3.org/2000/svg">
<g clip-path="url(#clip0_8:1100)">
<path d="M27.0001 33.43C27.0001 33.43 25.5801 25.6 27.2201 20.12C27.9201 17.77 32.1401 6.83 46.3701 9.12C57.4901 10.92 64.4601 13.69 62.2701 33.45L59.4601 37.92L44.1601 23.16C44.1601 23.16 31.0601 31.64 29.9001 35.66C28.7401 39.68 27.0001 33.43 27.0001 33.43Z" fill="#E36C29"/>
<path d="M86.4201 101.9H2.09009C2.09009 101.9 2.09009 77.16 5.93009 74.72C8.00009 73.41 16.0001 70.47 23.0001 68C25.2101 67.22 27.3101 66.51 29.0901 65.91C32.0901 64.91 34.0901 64.23 34.0901 64.23H54.3601C54.3601 64.23 56.6301 64.97 59.8801 66.08C62.2301 66.88 65.0801 67.85 67.9801 68.88C74.2701 71.1 80.7601 73.53 82.5901 74.68C86.4201 77.16 86.4201 101.9 86.4201 101.9Z" fill="#F5A784"/>
<path d="M54.3601 64.27L44.8601 65.86V66.13L44.0801 66.01L43.3101 66.13V65.86L34.1501 64.27L34.4301 62.09L34.6501 60.28L35.7301 51.49H52.4401L53.3701 57.72L54.0201 62.04L54.3601 64.27Z" fill="#F5A784"/>
<path d="M53.3701 57.72C46.1401 61.03 38.5201 60.72 34.6501 60.28L35.7301 51.5H52.4401L53.3701 57.72Z" fill="#E0855C"/>
<path d="M58.7601 37.13C58.7601 37.13 60.1601 31.62 63.6201 34.06C67.0801 36.5 63.6201 44.56 58.7401 44.51C58.7401 44.51 57.4401 39.11 58.7601 37.13Z" fill="#F5A784"/>
<path d="M62.43 36.63C61.7203 36.9547 61.1095 37.462 60.66 38.1C60.1292 38.6425 59.7171 39.2896 59.45 40C59.4 40.23 59.71 40.32 59.84 40.17C60.2 39.75 60.48 39.25 60.84 38.8C61.1225 39.0815 61.4641 39.2967 61.84 39.43C62.14 39.5 62.31 39.11 62.16 38.89C61.9329 38.6149 61.6455 38.3959 61.32 38.25C61.804 37.868 62.2586 37.4502 62.68 37C62.729 36.9668 62.7629 36.9156 62.7742 36.8574C62.7854 36.7993 62.7731 36.7391 62.74 36.69C62.7068 36.6409 62.6555 36.607 62.5974 36.5958C62.5393 36.5845 62.479 36.5968 62.43 36.63Z" fill="#E0855C"/>
<path d="M29.8202 36.61C29.8202 36.61 28.4302 31.1 25.0002 33.54C21.5702 35.98 25.0002 44 29.8402 44C29.8402 44 31.1502 38.59 29.8202 36.61Z" fill="#F5A784"/>
<path d="M26.16 36.11C26.8653 36.4371 27.4747 36.9398 27.93 37.57C28.4667 38.1445 28.8756 38.8261 29.13 39.57C29.19 39.79 28.87 39.89 28.74 39.74C28.38 39.31 28.1 38.82 27.74 38.37C27.463 38.6561 27.1194 38.8691 26.74 38.99C26.44 39.07 26.27 38.68 26.42 38.46C26.6489 38.1826 26.9402 37.9633 27.27 37.82C26.7715 37.4223 26.3065 36.9841 25.88 36.51C25.827 36.4729 25.7908 36.4162 25.7796 36.3524C25.7683 36.2887 25.7829 36.223 25.82 36.17C25.8571 36.117 25.9138 36.0808 25.9776 36.0696C26.0413 36.0583 26.107 36.0729 26.16 36.11Z" fill="#E0855C"/>
<path d="M59.48 30.25C56.22 14.65 44.26 15.74 44.26 15.74C44.26 15.74 32.3 14.65 29 30.25C27.7355 36.0475 28.2228 42.09 30.4 47.61C32.5 52.79 36.56 58.37 44.22 58.37C51.88 58.37 56 52.79 58.09 47.61C60.2597 42.0881 60.7435 36.0468 59.48 30.25Z" fill="#F5A784"/>
<path d="M45.1202 42.77C44.4202 42.7 42.8402 43.19 42.4802 42.46C42.1202 41.73 43.1102 38.11 43.2402 37.46C43.7821 35.271 44.206 33.0545 44.5102 30.82C44.5024 30.7928 44.486 30.7689 44.4635 30.7519C44.4409 30.7349 44.4134 30.7257 44.3852 30.7257C44.3569 30.7257 44.3294 30.7349 44.3069 30.7519C44.2843 30.7689 44.2679 30.7928 44.2602 30.82C42.8402 34.53 42.4602 39.05 41.6802 42.95C41.6697 43.0014 41.6709 43.0546 41.6837 43.1055C41.6965 43.1564 41.7206 43.2038 41.7542 43.2441C41.7878 43.2845 41.8301 43.3167 41.8779 43.3385C41.9256 43.3603 41.9777 43.3711 42.0302 43.37C43.0302 43.3 44.0302 43.47 45.0302 43.42C45.4002 43.37 45.4702 42.8 45.1202 42.77Z" fill="#E0855C"/>
<path d="M37.62 35.73C37.62 35.73 36.31 36.22 36.51 33.89C36.69 31.8 37.62 32.08 37.62 32.08C37.62 32.08 38.54 32.08 38.4 33.9C38.26 35.72 37.62 35.73 37.62 35.73Z" fill="#3B2645"/>
<path d="M50.1802 35.73C50.1802 35.73 48.8602 36.22 49.0602 33.89C49.2402 31.8 50.1802 32.08 50.1802 32.08C50.1802 32.08 51.0902 32.08 50.9502 33.9C50.8102 35.72 50.1802 35.73 50.1802 35.73Z" fill="#3B2645"/>
<path d="M39.39 28.86C38.26 28.29 36.15 28.13 35.32 29.31C35.2906 29.3628 35.2754 29.4224 35.2759 29.4828C35.2764 29.5433 35.2925 29.6026 35.3227 29.655C35.3529 29.7073 35.3962 29.751 35.4483 29.7816C35.5004 29.8123 35.5595 29.829 35.62 29.83C36.19 29.83 36.68 29.53 37.25 29.49C37.8487 29.4637 38.4467 29.5555 39.01 29.76C39.1269 29.7988 39.2543 29.7921 39.3665 29.7413C39.4788 29.6904 39.5678 29.5991 39.6157 29.4855C39.6636 29.372 39.667 29.2445 39.6252 29.1286C39.5834 29.0127 39.4994 28.9168 39.39 28.86Z" fill="#3B2645"/>
<path d="M51.94 28.86C50.81 28.29 48.7 28.13 47.88 29.31C47.8507 29.3628 47.8355 29.4224 47.8359 29.4828C47.8364 29.5433 47.8526 29.6026 47.8828 29.655C47.913 29.7073 47.9562 29.751 48.0083 29.7816C48.0604 29.8123 48.1196 29.829 48.18 29.83C48.74 29.83 49.24 29.53 49.8 29.49C50.4019 29.4645 51.0031 29.5562 51.57 29.76C51.6855 29.7921 51.8088 29.7808 51.9165 29.7281C52.0242 29.6754 52.1089 29.5851 52.1545 29.4742C52.2001 29.3633 52.2034 29.2396 52.1639 29.1264C52.1244 29.0132 52.0447 28.9184 51.94 28.86Z" fill="#3B2645"/>
<path d="M35.27 18.81C32.0131 23.3361 29.7099 28.4767 28.5 33.92L27 31.27C27 31.27 29.46 16.66 35.27 18.81Z" fill="#E36C29"/>
<path d="M35.2702 18.81C35.2702 18.81 41.8102 21.13 53.3702 18.81C53.3702 18.81 60.1602 31.03 60.1602 33.92C60.1602 33.92 62.5602 21 59.4502 18.6C56.3402 16.2 34.2302 7.93 35.2702 18.81Z" fill="#E36C29"/>
<path d="M39.3201 47.56C40.5257 48.6493 42.106 49.2299 43.7301 49.18C44.5788 49.2367 45.4304 49.1225 46.2342 48.8442C47.0381 48.566 47.778 48.1293 48.4101 47.56L43.7301 45.26L39.3201 47.56Z" fill="white"/>
<path d="M43.73 44C43.73 44 36.6 44.57 36.49 47.81C38.9626 48.1277 41.4746 47.7322 43.73 46.67C45.9187 47.9619 48.4956 48.4333 51 48C51 48 51.48 45.09 43.73 44Z" fill="#E36C29"/>
<path d="M68 68.92L44.25 101.21L23 68C25.21 67.22 27.31 66.51 29.09 65.91C32.09 64.91 34.09 64.23 34.09 64.23L34.37 62.05C36.896 62.2817 39.3488 63.0234 41.58 64.23C42.4793 64.7208 43.3184 65.3148 44.08 66C45.0413 65.3557 46.0434 64.7745 47.08 64.26C49.2319 63.0965 51.5761 62.3309 54 62L54.34 64.23C54.34 64.23 56.61 64.97 59.86 66.08C62.23 66.92 65.08 67.89 68 68.92Z" fill="white"/>
<path d="M86.4201 101.9H2.09009C2.09009 101.9 2.09009 77.16 5.93009 74.72C8.00009 73.41 16.0001 70.47 23.0001 68C24.0901 67.61 25.1601 67.25 26.1801 66.9L29.0901 65.9C30.7201 69.2 44.4801 99.79 44.4801 99.79C44.9001 98.85 58.2001 69.37 59.8601 66.07L62.8601 67.07C64.4901 67.63 66.2401 68.25 68.0001 68.87C74.2901 71.09 80.7801 73.52 82.6101 74.67C86.4201 77.16 86.4201 101.9 86.4201 101.9Z" fill="#3B2645"/>
<path d="M27.9001 87.57L32.2401 80.2L23.5601 79.12L26.2001 66.94L29.1101 65.94C30.7401 69.24 44.5001 99.83 44.5001 99.83L27.9001 87.57Z" fill="#5A4963"/>
<path d="M56.8 80.38L61.14 87.75L44.5 99.84C44.92 98.9 58.22 69.42 59.88 66.12L62.88 67.12L65.52 79.31L56.8 80.38Z" fill="#5A4963"/>
<path d="M44 70.42C43.8173 70.4412 43.6487 70.5288 43.5264 70.6662C43.404 70.8035 43.3364 70.9811 43.3364 71.165C43.3364 71.3489 43.404 71.5265 43.5264 71.6638C43.6487 71.8012 43.8173 71.8888 44 71.91C44.1827 71.8888 44.3512 71.8012 44.4736 71.6638C44.5959 71.5265 44.6635 71.3489 44.6635 71.165C44.6635 70.9811 44.5959 70.8035 44.4736 70.6662C44.3512 70.5288 44.1827 70.4412 44 70.42Z" fill="#5A4963"/>
<path d="M44 77.78C43.8011 77.78 43.6103 77.859 43.4697 77.9997C43.329 78.1403 43.25 78.3311 43.25 78.53C43.25 78.7289 43.329 78.9197 43.4697 79.0603C43.6103 79.201 43.8011 79.28 44 79.28C44.1989 79.28 44.3897 79.201 44.5303 79.0603C44.671 78.9197 44.75 78.7289 44.75 78.53C44.75 78.3311 44.671 78.1403 44.5303 77.9997C44.3897 77.859 44.1989 77.78 44 77.78Z" fill="#5A4963"/>
<path d="M44 85.15C43.8173 85.1712 43.6487 85.2588 43.5264 85.3962C43.404 85.5335 43.3364 85.711 43.3364 85.895C43.3364 86.0789 43.404 86.2565 43.5264 86.3938C43.6487 86.5312 43.8173 86.6188 44 86.64C44.1827 86.6188 44.3512 86.5312 44.4736 86.3938C44.5959 86.2565 44.6635 86.0789 44.6635 85.895C44.6635 85.711 44.5959 85.5335 44.4736 85.3962C44.3512 85.2588 44.1827 85.1712 44 85.15Z" fill="#5A4963"/>
</g>
<defs>
<clipPath id="clip0_8:1100">
<rect width="89.01" height="101.9" fill="white"/>
</clipPath>
</defs>
</svg>
