<svg width="90" height="103" viewBox="0 0 90 103" fill="none" xmlns="http://www.w3.org/2000/svg">
<g clip-path="url(#clip0_8:943)">
<path d="M29.83 41.74C29.83 41.74 27.26 36.02 29.21 30.24C30.0165 27.9034 31.2797 25.7505 32.9261 23.9066C34.5725 22.0628 36.5692 20.5649 38.8 19.5C45.25 16.63 55.57 18.11 59.98 26.73C64.39 35.35 59.36 46.62 57.73 48.32C56.1 50.02 33.13 49 29.83 41.74Z" fill="#3B2645"/>
<path d="M76.32 102.13H12.67C12.67 102.13 15.23 80.75 16.85 76.13C18.27 72.13 31.74 70.52 36.35 68.65C36.8849 68.4763 37.369 68.1742 37.76 67.77H51.23C51.621 68.1742 52.1051 68.4763 52.64 68.65C57.23 70.51 70.73 72.1 72.14 76.13C73.77 80.75 76.32 102.13 76.32 102.13Z" fill="#F5A784"/>
<path d="M52.64 68.63L44.49 72.68L36.36 68.63C37.0231 67.4716 37.5308 66.2309 37.87 64.94C38.01 64.46 38.15 63.94 38.27 63.36C38.7726 61.0249 38.9908 58.6375 38.92 56.25H50.07C50.0223 58.0599 50.1361 59.8704 50.41 61.66C50.5586 62.7516 50.7859 63.8311 51.09 64.89C51.4294 66.203 51.9511 67.4619 52.64 68.63Z" fill="#F5A784"/>
<path d="M50.41 61.66C46.46 63.76 40.82 63.58 38.27 63.36C38.7731 61.025 38.9914 58.6376 38.92 56.25H50.07C50.0169 58.0599 50.1308 59.8709 50.41 61.66Z" fill="#E0855C"/>
<path d="M33 44.63C33 44.63 31.69 39.46 28.44 41.75C25.19 44.04 28.44 51.6 33.02 51.56C33 51.56 34.23 46.49 33 44.63Z" fill="#F5A784"/>
<path d="M29.55 44.16C30.2149 44.4663 30.7874 44.9423 31.21 45.54C31.7113 46.0598 32.0964 46.6802 32.34 47.36C32.4 47.57 32.1 47.67 31.98 47.52C31.64 47.12 31.38 46.66 31.07 46.24C30.8016 46.5031 30.4767 46.7015 30.12 46.82C29.84 46.89 29.68 46.53 29.82 46.32C30.0332 46.0614 30.3037 45.856 30.61 45.72C30.1459 45.3438 29.7113 44.9326 29.31 44.49C29.2796 44.4541 29.2621 44.409 29.2604 44.362C29.2586 44.315 29.2727 44.2688 29.3004 44.2307C29.3281 44.1927 29.3677 44.165 29.413 44.1522C29.4582 44.1394 29.5065 44.1421 29.55 44.16Z" fill="#E0855C"/>
<path d="M56.26 44.63C56.26 44.63 57.56 39.46 60.82 41.75C64.08 44.04 60.82 51.6 56.23 51.56C56.23 51.56 55 46.49 56.26 44.63Z" fill="#F5A784"/>
<path d="M59.69 44.16C59.0142 44.4619 58.4309 44.9382 58 45.54C57.5018 46.0604 57.1201 46.6808 56.88 47.36C56.82 47.57 57.11 47.67 57.24 47.52C57.58 47.12 57.84 46.66 58.15 46.24C58.4147 46.5029 58.7363 46.7014 59.09 46.82C59.38 46.89 59.54 46.53 59.4 46.32C59.1832 46.061 58.9094 45.8556 58.6 45.72C59.0672 45.3438 59.5052 44.9326 59.91 44.49C59.9311 44.4543 59.9418 44.4134 59.9407 44.372C59.9396 44.3306 59.9268 44.2903 59.9038 44.2558C59.8808 44.2213 59.8485 44.194 59.8107 44.1771C59.7729 44.1601 59.731 44.1542 59.69 44.16Z" fill="#E0855C"/>
<path d="M57.16 37.7C54.46 24.7 44.5 25.64 44.5 25.64C44.5 25.64 34.5 24.73 31.85 37.7C30.7889 42.5206 31.1893 47.5481 33 52.14C34.75 56.45 38.12 61.14 44.49 61.14C50.86 61.14 54.24 56.49 55.99 52.14C57.8073 47.5501 58.2147 42.5226 57.16 37.7Z" fill="#F5A784"/>
<path d="M38.53 43.23C38.53 43.23 37.42 43.64 37.59 41.68C37.74 39.92 38.53 40.16 38.53 40.16C38.53 40.16 39.29 40.16 39.18 41.69C39.07 43.22 38.53 43.23 38.53 43.23Z" fill="#3B2645"/>
<path d="M49.8 43.23C49.8 43.23 48.69 43.64 48.86 41.68C49.01 39.92 49.8 40.16 49.8 40.16C49.8 40.16 50.57 40.16 50.45 41.69C50.33 43.22 49.8 43.23 49.8 43.23Z" fill="#3B2645"/>
<path d="M46.91 51.94C46.0313 52.3456 45.1085 52.6476 44.16 52.84C43.23 52.84 42.41 52.43 41.53 52.44C41.5055 52.4402 41.4815 52.4468 41.4604 52.4592C41.4393 52.4716 41.4218 52.4893 41.4097 52.5105C41.3975 52.5318 41.3912 52.5558 41.3912 52.5803C41.3913 52.6048 41.3978 52.6288 41.41 52.65C42.41 54.22 46.25 53.74 47.14 52.23C47.1594 52.1954 47.1681 52.1558 47.165 52.1162C47.1618 52.0767 47.1469 52.0389 47.1223 52.0078C47.0976 51.9767 47.0643 51.9537 47.0265 51.9416C46.9887 51.9295 46.9481 51.929 46.91 51.94Z" fill="#E0855C"/>
<path d="M40.2 37.26C39.6355 36.9011 38.964 36.7491 38.3 36.83C37.71 36.83 36.86 36.83 36.47 37.33C36.47 37.4 36.47 37.48 36.47 37.51C37.0233 37.5813 37.5847 37.5577 38.13 37.44C38.7568 37.524 39.3878 37.574 40.02 37.59C40.21 37.57 40.35 37.38 40.2 37.26Z" fill="#3B2645"/>
<path d="M51.64 37C51.4566 36.7475 51.2045 36.553 50.9138 36.4396C50.6231 36.3261 50.3059 36.2985 50 36.36C49.39 36.42 48.48 36.59 48.17 37.16C48.1585 37.1806 48.1517 37.2035 48.1501 37.2271C48.1485 37.2506 48.1521 37.2743 48.1607 37.2962C48.1693 37.3182 48.1827 37.338 48.1999 37.3542C48.217 37.3705 48.2376 37.3827 48.26 37.39C48.74 37.52 49.16 37.23 49.63 37.13C50.2324 37.0571 50.8435 37.1326 51.41 37.35C51.4549 37.3624 51.5025 37.3603 51.5461 37.3439C51.5897 37.3275 51.6269 37.2977 51.6525 37.2588C51.678 37.2199 51.6906 37.1739 51.6884 37.1274C51.6861 37.0809 51.6692 37.0363 51.64 37Z" fill="#3B2645"/>
<path d="M44.22 48.32C43.73 48.21 42.55 48.23 42.36 47.84C42.17 47.45 43.12 45.52 43.22 45.08C43.6631 43.5615 43.7756 41.9657 43.55 40.4C43.55 40.31 43.4 40.32 43.38 40.4C43.08 41.7 43.07 43.05 42.79 44.4C42.51 45.75 42.03 46.97 41.63 48.26C41.6191 48.2959 41.6167 48.3339 41.6231 48.3709C41.6295 48.4079 41.6445 48.4429 41.6668 48.473C41.6892 48.5032 41.7183 48.5276 41.7519 48.5445C41.7854 48.5613 41.8225 48.5701 41.86 48.57C42.6395 48.7199 43.4405 48.7199 44.22 48.57C44.2472 48.5622 44.2711 48.5458 44.2881 48.5233C44.3051 48.5007 44.3143 48.4733 44.3143 48.445C44.3143 48.4167 44.3051 48.3893 44.2881 48.3667C44.2711 48.3442 44.2472 48.3278 44.22 48.32Z" fill="#E0855C"/>
<path d="M41.62 25.62C41.62 25.62 46.79 32.7 52.62 34.68C58.45 36.66 53.29 50.86 53.29 50.86C53.29 50.86 64.11 44.67 63.54 34.68C62.97 24.69 58.54 18.6 48.82 16.41C48.82 16.41 42.62 9.04 31.26 15.14C19.9 21.24 23.13 39.14 25.67 41.7C28.21 44.26 31.67 39.55 33.53 49.16C34.4343 46.992 34.7976 44.6365 34.5886 42.2968C34.3795 39.9571 33.6044 37.7033 32.33 35.73C28 28.61 41.62 25.62 41.62 25.62Z" fill="#3B2645"/>
<path d="M51.11 13.62C50.4159 13.8647 49.8126 14.3146 49.38 14.91C49.38 14.57 49.38 14.18 49.33 13.8C49.3588 12.8822 49.1302 11.9746 48.67 11.18C48.6577 11.1546 48.6385 11.1333 48.6147 11.1183C48.5908 11.1033 48.5632 11.0954 48.535 11.0954C48.5068 11.0954 48.4792 11.1033 48.4553 11.1183C48.4315 11.1333 48.4123 11.1546 48.4 11.18C48.2753 12.0355 48.2753 12.9045 48.4 13.76C48.4 14.76 48.4 15.76 48.4 16.76C48.3968 16.8365 48.4221 16.9116 48.4709 16.9706C48.5197 17.0296 48.5887 17.0684 48.6645 17.0796C48.7403 17.0908 48.8175 17.0735 48.8813 17.0311C48.9451 16.9887 48.991 16.9242 49.01 16.85C49.0147 16.8001 49.0147 16.7499 49.01 16.7C49.3654 16.3041 49.6961 15.8867 50 15.45C50.41 14.96 51 14.6 51.37 14.13C51.4097 14.0834 51.4347 14.026 51.4418 13.9652C51.449 13.9044 51.4379 13.8428 51.4101 13.7883C51.3823 13.7337 51.339 13.6886 51.2855 13.6587C51.2321 13.6287 51.1711 13.6153 51.11 13.62Z" fill="#3B2645"/>
<path d="M76.32 102.13H12.67C12.67 102.13 15.23 80.75 16.85 76.13C17.27 74.92 18.77 73.94 20.78 73.13C25.51 71.13 33.11 69.98 36.35 68.67C37.0248 67.5162 37.5363 66.2743 37.87 64.98C39.5678 65.5793 41.1163 66.5378 42.41 67.79C43.3433 68.6848 44.0318 69.8036 44.41 71.04C44.7874 69.8033 45.476 68.6842 46.41 67.79C47.75 66.5011 49.3584 65.5244 51.12 64.93C51.4594 66.243 51.9811 67.5019 52.67 68.67C56 70 64 71.2 68.73 73.3C70.48 74.1 71.73 75.01 72.14 76.11C73.77 80.75 76.32 102.13 76.32 102.13Z" fill="#DADEEA"/>
<path d="M23.45 102.13H12.67C12.67 102.13 15.23 80.75 16.85 76.13C17.27 74.92 18.77 73.94 20.78 73.13C22.07 78.21 23.33 87.06 23.45 102.13Z" fill="#B8C3E3"/>
<path d="M76.32 102.13H66.11C66.23 87.26 67.46 78.46 68.73 73.3C70.48 74.1 71.73 75.01 72.14 76.11C73.77 80.75 76.32 102.13 76.32 102.13Z" fill="#B8C3E3"/>
</g>
<defs>
<clipPath id="clip0_8:943">
<rect width="89.01" height="102.13" fill="white"/>
</clipPath>
</defs>
</svg>
