<svg width="90" height="102" viewBox="0 0 90 102" fill="none" xmlns="http://www.w3.org/2000/svg">
<g clip-path="url(#clip0_8:1184)">
<path d="M29.83 41.52C29.83 41.52 27.26 35.8 29.21 30C29.7964 28.1798 31.08 26.666 32.78 25.79C33.1861 25.5785 33.626 25.4397 34.08 25.38C34.08 25.38 32.36 22.13 38.8 19.26C45.24 16.39 55.57 17.89 60 26.51C64.43 35.13 59.36 46.4 57.73 48.1C56.1 49.8 33.13 48.77 29.83 41.52Z" fill="#3B2645"/>
<path d="M76.32 101.9H12.67C12.67 101.9 15.23 80.54 16.85 75.9C17.96 72.73 26.49 71.07 32.35 69.61C35.09 68.92 37.25 68.28 37.76 67.53H51.23C51.73 68.24 53.67 68.85 56.23 69.53C62.05 71 71 72.64 72.14 75.89C73.77 80.54 76.32 101.9 76.32 101.9Z" fill="#F5A784"/>
<path d="M52.64 68.41L44.49 72.41L36.35 68.41C37.2859 66.7757 37.9353 64.9933 38.27 63.14C38.775 60.7951 38.9932 58.3975 38.92 56H50.07C50.0169 57.8099 50.1308 59.6209 50.41 61.41C50.6642 63.8718 51.4233 66.2548 52.64 68.41Z" fill="#F5A784"/>
<path d="M50.41 61.44C46.46 63.54 40.82 63.36 38.27 63.14C38.775 60.7951 38.9932 58.3975 38.92 56H50.07C50.0151 57.8199 50.1289 59.6411 50.41 61.44Z" fill="#E0855C"/>
<path d="M33 44.41C33 44.41 31.69 39.24 28.44 41.53C25.19 43.82 28.44 51.38 33.02 51.34C33 51.34 34.23 46.27 33 44.41Z" fill="#F5A784"/>
<path d="M29.55 43.94C30.2149 44.2463 30.7874 44.7223 31.21 45.32C31.7113 45.8398 32.0964 46.4602 32.34 47.14C32.4 47.35 32.1 47.44 31.98 47.3C31.64 46.9 31.38 46.44 31.07 46.02C30.8016 46.2831 30.4767 46.4815 30.12 46.6C29.84 46.67 29.68 46.31 29.82 46.1C30.0332 45.8414 30.3037 45.636 30.61 45.5C30.1459 45.1238 29.7113 44.7126 29.31 44.27C29.2796 44.2341 29.2621 44.189 29.2604 44.142C29.2586 44.095 29.2727 44.0488 29.3004 44.0107C29.3281 43.9727 29.3677 43.9451 29.413 43.9322C29.4582 43.9194 29.5065 43.9221 29.55 43.94Z" fill="#E0855C"/>
<path d="M56.26 44.41C56.26 44.41 57.56 39.24 60.82 41.53C64.08 43.82 60.82 51.38 56.23 51.34C56.23 51.34 55 46.27 56.26 44.41Z" fill="#F5A784"/>
<path d="M59.69 43.94C59.0142 44.2419 58.4309 44.7182 58 45.32C57.5018 45.8404 57.1201 46.4608 56.88 47.14C56.82 47.35 57.11 47.44 57.24 47.3C57.58 46.9 57.84 46.44 58.15 46.02C58.4147 46.2829 58.7363 46.4814 59.09 46.6C59.38 46.67 59.54 46.31 59.4 46.1C59.1832 45.841 58.9094 45.6356 58.6 45.5C59.0672 45.1238 59.5052 44.7126 59.91 44.27C59.9311 44.2343 59.9418 44.1934 59.9407 44.152C59.9396 44.1106 59.9268 44.0703 59.9038 44.0358C59.8808 44.0013 59.8485 43.974 59.8107 43.9571C59.7729 43.9401 59.731 43.9342 59.69 43.94Z" fill="#E0855C"/>
<path d="M57.16 37.48C54.46 24.48 44.5 25.42 44.5 25.42C44.5 25.42 34.5 24.51 31.85 37.48C30.7889 42.3006 31.1893 47.3281 33 51.92C34.75 56.23 38.12 60.92 44.49 60.92C50.86 60.92 54.24 56.27 55.99 51.92C57.8073 47.3301 58.2147 42.3026 57.16 37.48Z" fill="#F5A784"/>
<path d="M38.53 43C38.53 43 37.42 43.42 37.59 41.46C37.74 39.7 38.53 39.94 38.53 39.94C38.53 39.94 39.29 39.94 39.18 41.47C39.07 43 38.53 43 38.53 43Z" fill="#3B2645"/>
<path d="M49.8 43C49.8 43 48.69 43.42 48.86 41.46C49.01 39.7 49.8 39.94 49.8 39.94C49.8 39.94 50.57 39.94 50.45 41.47C50.33 43 49.8 43 49.8 43Z" fill="#3B2645"/>
<path d="M46.91 51.72C46.0313 52.1256 45.1085 52.4276 44.16 52.62C43.23 52.67 42.41 52.21 41.53 52.22C41.5055 52.2202 41.4815 52.2268 41.4604 52.2392C41.4393 52.2516 41.4218 52.2693 41.4097 52.2905C41.3975 52.3118 41.3912 52.3358 41.3912 52.3603C41.3913 52.3848 41.3978 52.4088 41.41 52.43C42.41 54 46.25 53.52 47.14 52.01C47.1594 51.9754 47.1681 51.9358 47.165 51.8962C47.1618 51.8567 47.1469 51.8189 47.1223 51.7878C47.0976 51.7567 47.0643 51.7337 47.0265 51.7216C46.9887 51.7095 46.9481 51.709 46.91 51.72Z" fill="#E0855C"/>
<path d="M40.2 37C39.6355 36.6411 38.964 36.4891 38.3 36.57C37.71 36.57 36.86 36.57 36.47 37.07C36.47 37.14 36.47 37.22 36.47 37.25C37.0233 37.3213 37.5847 37.2977 38.13 37.18C38.7568 37.264 39.3878 37.314 40.02 37.33C40.21 37.35 40.35 37.16 40.2 37Z" fill="#3B2645"/>
<path d="M51.64 36.8C51.4582 36.5448 51.2072 36.3471 50.9165 36.2301C50.6259 36.1131 50.3078 36.0819 50 36.14C49.39 36.2 48.48 36.37 48.17 36.94C48.1585 36.9606 48.1517 36.9835 48.1501 37.0071C48.1485 37.0306 48.1521 37.0542 48.1607 37.0762C48.1693 37.0982 48.1827 37.118 48.1999 37.1342C48.217 37.1504 48.2376 37.1627 48.26 37.17C48.74 37.3 49.16 37.01 49.63 36.91C50.2324 36.8371 50.8435 36.9126 51.41 37.13C51.4508 37.1342 51.492 37.1274 51.5293 37.1103C51.5666 37.0932 51.5987 37.0664 51.6221 37.0327C51.6456 36.999 51.6596 36.9597 51.6628 36.9188C51.6659 36.8779 51.6581 36.8369 51.64 36.8Z" fill="#3B2645"/>
<path d="M44.22 48.1C43.73 47.99 42.55 48.01 42.36 47.62C42.17 47.23 43.12 45.3 43.22 44.86C43.6631 43.3415 43.7756 41.7457 43.55 40.18C43.55 40.09 43.4 40.1 43.38 40.18C43.08 41.48 43.07 42.83 42.79 44.18C42.51 45.53 42 46.72 41.63 48C41.619 48.0359 41.6167 48.0739 41.6231 48.1109C41.6295 48.1479 41.6444 48.1829 41.6668 48.213C41.6892 48.2432 41.7183 48.2676 41.7519 48.2845C41.7854 48.3013 41.8225 48.3101 41.86 48.31C42.6395 48.4599 43.4405 48.4599 44.22 48.31C44.2365 48.2979 44.25 48.2821 44.2592 48.2639C44.2685 48.2456 44.2733 48.2255 44.2733 48.205C44.2733 48.1845 44.2685 48.1644 44.2592 48.1461C44.25 48.1279 44.2365 48.1121 44.22 48.1Z" fill="#E0855C"/>
<path d="M33.55 75.44C33.55 75.44 45.45 77.31 55.7 74.67L43 96.93L33.55 75.44Z" fill="white"/>
<path d="M76.32 101.9H12.67C12.67 101.9 15.23 80.54 16.85 75.9C17.96 72.73 26.49 71.07 32.35 69.61C32.35 69.61 41.63 81.74 44.49 91.11C44.49 91.11 50.69 77.11 56.2 69.5C62.05 71 71 72.64 72.14 75.89C73.77 80.54 76.32 101.9 76.32 101.9Z" fill="#3B2645"/>
<path d="M34.06 25.48C33.331 23.3464 33.0286 21.0903 33.17 18.84C33.17 18.7798 33.1483 18.7217 33.1089 18.6762C33.0694 18.6307 33.0149 18.601 32.9554 18.5925C32.8958 18.584 32.8351 18.5973 32.7846 18.6299C32.734 18.6625 32.6969 18.7122 32.68 18.77C32.2052 20.5149 32.2052 22.3551 32.68 24.1C32.1312 23.675 31.5011 23.367 30.8286 23.195C30.1561 23.0231 29.4555 22.9907 28.77 23.1C28.7012 23.1176 28.6402 23.1577 28.5966 23.2138C28.553 23.2699 28.5294 23.3389 28.5294 23.41C28.5294 23.4811 28.553 23.5501 28.5966 23.6062C28.6402 23.6623 28.7012 23.7024 28.77 23.72C30.6 24.12 32.04 24.48 33.31 25.97C33.3887 26.0267 33.4827 26.0583 33.5797 26.0605C33.6766 26.0627 33.772 26.0355 33.8532 25.9824C33.9344 25.9294 33.9976 25.853 34.0345 25.7633C34.0715 25.6736 34.0803 25.5748 34.06 25.48Z" fill="#3B2645"/>
</g>
<defs>
<clipPath id="clip0_8:1184">
<rect width="89.01" height="101.9" fill="white"/>
</clipPath>
</defs>
</svg>
