<svg width="90" height="102" viewBox="0 0 90 102" fill="none" xmlns="http://www.w3.org/2000/svg">
<g clip-path="url(#clip0_8:1158)">
<path d="M26.66 33.43C26.66 33.43 25.25 25.6 26.89 20.12C27.2395 18.9594 27.8722 17.9039 28.731 17.0485C29.5899 16.1932 30.648 15.5648 31.81 15.22C31.81 15.22 32.68 9.73 43.94 9.32C55.2 8.91 64.13 13.7 61.94 33.46L59.12 37.93L43.83 23.16C43.83 23.16 30.73 31.64 29.58 35.66C28.43 39.68 26.66 33.43 26.66 33.43Z" fill="#3B2645"/>
<path d="M86.1 101.9H1.77C1.77 101.9 1.77 77.16 5.6 74.72C9.43 72.28 33.83 64.27 33.83 64.27H54C54 64.27 78.39 72.27 82.22 74.72C86.05 77.17 86.1 101.9 86.1 101.9Z" fill="#F5A784"/>
<path d="M54.04 64.27L44.55 65.87V66.13L43.76 66L42.98 66.13V65.87L33.83 64.27L34.32 60.27L35.41 51.49H52.12L53.05 57.72L54.04 64.27Z" fill="#F5A784"/>
<path d="M53.05 57.72C45.82 61.03 38.2 60.72 34.32 60.28L35.41 51.49H52.12L53.05 57.72Z" fill="#E0855C"/>
<path d="M58.44 37.13C58.44 37.13 59.83 31.62 63.3 34.06C66.77 36.5 63.3 44.56 58.42 44.51C58.42 44.51 57.11 39.11 58.44 37.13Z" fill="#F5A784"/>
<path d="M62.1 36.63C61.3921 36.9576 60.782 37.4643 60.33 38.1C59.8021 38.6429 59.3934 39.2901 59.13 40C59.07 40.23 59.39 40.32 59.52 40.17C59.88 39.75 60.16 39.25 60.52 38.8C60.7991 39.0857 61.1418 39.3016 61.52 39.43C61.82 39.5 61.99 39.11 61.84 38.89C61.6111 38.6126 61.3198 38.3933 60.99 38.25C61.4793 37.8706 61.9374 37.4526 62.36 37C62.3975 36.9616 62.4204 36.9113 62.4248 36.8578C62.4291 36.8043 62.4146 36.7509 62.3837 36.707C62.3528 36.6631 62.3076 36.6313 62.2558 36.6172C62.2039 36.6032 62.1488 36.6077 62.1 36.63Z" fill="#E0855C"/>
<path d="M29.5 36.61C29.5 36.61 28.1 31.1 24.64 33.54C21.18 35.98 24.64 44 29.52 44C29.52 44 30.82 38.59 29.5 36.61Z" fill="#F5A784"/>
<path d="M25.83 36.11C26.537 36.4344 27.1471 36.9376 27.6 37.57C28.1395 38.1441 28.5518 38.8256 28.81 39.57C28.86 39.79 28.55 39.89 28.42 39.74C28.06 39.31 27.78 38.82 27.42 38.37C27.1398 38.6521 26.7973 38.8645 26.42 38.99C26.12 39.07 25.95 38.68 26.1 38.46C26.3271 38.1849 26.6145 37.9659 26.94 37.82C26.4469 37.4196 25.9855 36.9817 25.56 36.51C25.507 36.4742 25.4703 36.4188 25.4581 36.356C25.4459 36.2931 25.4592 36.2281 25.495 36.175C25.5308 36.122 25.5862 36.0853 25.649 36.0731C25.7119 36.0609 25.777 36.0742 25.83 36.11Z" fill="#E0855C"/>
<path d="M59.15 30.25C55.9 14.65 43.94 15.74 43.94 15.74C43.94 15.74 32 14.65 28.72 30.25C27.4523 36.0465 27.9361 42.089 30.11 47.61C32.22 52.79 36.27 58.37 43.94 58.37C51.61 58.37 55.65 52.79 57.76 47.61C59.9392 42.0903 60.4232 36.0462 59.15 30.25Z" fill="#F5A784"/>
<path d="M44.79 42.77C44.09 42.7 42.52 43.19 42.16 42.46C41.8 41.73 42.79 38.11 42.92 37.46C43.4571 35.27 43.881 33.0537 44.19 30.82C44.1822 30.7928 44.1658 30.7689 44.1433 30.7519C44.1207 30.7349 44.0932 30.7257 44.065 30.7257C44.0367 30.7257 44.0093 30.7349 43.9867 30.7519C43.9642 30.7689 43.9478 30.7928 43.94 30.82C42.51 34.53 42.14 39.05 41.36 42.95C41.3474 43.0017 41.3471 43.0555 41.3591 43.1073C41.3711 43.1591 41.3951 43.2074 41.4291 43.2482C41.4632 43.2891 41.5063 43.3214 41.5551 43.3425C41.6039 43.3637 41.6569 43.3731 41.71 43.37C42.71 43.3 43.71 43.47 44.71 43.42C45.08 43.37 45.15 42.8 44.79 42.77Z" fill="#E0855C"/>
<path d="M39 47.23H48.61C48.61 47.23 46.81 50.64 43.8 50.64C40.79 50.64 39 47.23 39 47.23Z" fill="white"/>
<path d="M37.3 35.73C37.3 35.73 35.99 36.22 36.19 33.89C36.37 31.8 37.3 32.08 37.3 32.08C37.3 32.08 38.22 32.08 38.08 33.9C37.94 35.72 37.3 35.73 37.3 35.73Z" fill="#3B2645"/>
<path d="M49.85 35.73C49.85 35.73 48.54 36.22 48.74 33.89C48.92 31.8 49.85 32.08 49.85 32.08C49.85 32.08 50.77 32.08 50.63 33.9C50.49 35.72 49.85 35.73 49.85 35.73Z" fill="#3B2645"/>
<path d="M39.07 28.86C37.94 28.29 35.82 28.13 35 29.31C34.9706 29.3628 34.9554 29.4224 34.9559 29.4828C34.9564 29.5433 34.9725 29.6026 35.0027 29.655C35.033 29.7073 35.0762 29.751 35.1283 29.7816C35.1804 29.8123 35.2395 29.829 35.3 29.83C35.86 29.83 36.36 29.53 36.92 29.49C37.5219 29.4645 38.1231 29.5562 38.69 29.76C38.8021 29.7809 38.918 29.7628 39.0185 29.7088C39.1189 29.6548 39.1979 29.568 39.2423 29.463C39.2866 29.3579 39.2937 29.2408 39.2624 29.1311C39.2311 29.0214 39.1632 28.9258 39.07 28.86Z" fill="#3B2645"/>
<path d="M51.62 28.86C50.49 28.29 48.38 28.13 47.55 29.31C47.5206 29.3628 47.5054 29.4224 47.5059 29.4828C47.5064 29.5433 47.5225 29.6026 47.5527 29.655C47.583 29.7073 47.6262 29.751 47.6783 29.7816C47.7304 29.8123 47.7895 29.829 47.85 29.83C48.42 29.83 48.91 29.53 49.48 29.49C50.0787 29.4637 50.6767 29.5555 51.24 29.76C51.357 29.7988 51.4843 29.7921 51.5965 29.7413C51.7088 29.6904 51.7978 29.5991 51.8457 29.4855C51.8937 29.372 51.8971 29.2445 51.8552 29.1286C51.8134 29.0127 51.7294 28.9168 51.62 28.86Z" fill="#3B2645"/>
<path d="M35 18.81C35 18.81 42.13 20.27 47 17.58C51.87 14.89 60 28.71 59.75 34.46L61.27 27.92L54 14.07L40.1 13.07C40.1 13.07 33.61 16.53 35 18.81Z" fill="#3B2645"/>
<path d="M35 18.81C31.7379 23.3343 29.431 28.4754 28.22 33.92L26.71 31.27C26.71 31.27 29.14 16.66 35 18.81Z" fill="#3B2645"/>
<path d="M86.1 101.9H1.77C1.77 101.9 1.77 77.16 5.6 74.72C7.91391 73.5189 10.3099 72.483 12.77 71.62C16.87 70.07 21.87 68.32 25.98 66.91C30.43 65.38 33.83 64.27 33.83 64.27L43.68 82L54 64.27C54 64.27 57.4 65.38 61.86 66.92C65.79 68.26 70.54 69.92 74.52 71.42C77.1624 72.3343 79.7356 73.4371 82.22 74.72C86.1 77.16 86.1 101.9 86.1 101.9Z" fill="#DADEEA"/>
<path d="M48.38 76.18L45.65 71.05H43.79H43.52H41.65L38.92 76.18L39.32 79.59L41.12 83.09L39.88 98.56L43.52 101.02V101.21L43.65 101.11L43.79 101.21V101.02L47.43 98.56L46.18 83.09L47.98 79.59L48.38 76.18Z" fill="#3B2645"/>
<path d="M30.09 65.51L34.32 60.27L41.82 71.05L39.31 79.58L30.09 65.51Z" fill="#B8C3E3"/>
<path d="M57.31 65.36L53.38 59.95L45.53 71.05L47.99 79.58L57.31 65.36Z" fill="#B8C3E3"/>
</g>
<defs>
<clipPath id="clip0_8:1158">
<rect width="89.01" height="101.9" fill="white"/>
</clipPath>
</defs>
</svg>
