<svg width="90" height="102" viewBox="0 0 90 102" fill="none" xmlns="http://www.w3.org/2000/svg">
<g clip-path="url(#clip0_8:992)">
<path d="M26.14 33.43C26.14 33.43 24.72 25.6 26.36 20.12C26.7095 18.9594 27.3422 17.9039 28.201 17.0485C29.0599 16.1932 30.118 15.5648 31.28 15.22C31.28 15.22 32.15 9.73 43.41 9.32C54.67 8.91 63.6 13.7 61.41 33.46L58.6 37.93L43.31 23.16C43.31 23.16 30.21 31.64 29.05 35.66C27.89 39.68 26.14 33.43 26.14 33.43Z" fill="#3B2645"/>
<path d="M85.57 101.9H1.25C1.25 101.9 1.25 77.16 5.07 74.72C8 72.87 22.76 67.8 29.7 65.46L33.3 64.27H53.51C53.51 64.27 54.51 64.6 56.21 65.17C62.67 67.33 78.69 72.79 81.73 74.72C85.57 77.16 85.57 101.9 85.57 101.9Z" fill="#F5A784"/>
<path d="M53.51 64.27L44.02 65.87V66.13L43.23 66L42.45 66.13V65.87L33.3 64.27L33.8 60.27L34.88 51.49H51.59L52.52 57.72L53.51 64.27Z" fill="#F5A784"/>
<path d="M52.52 57.72C45.29 61.03 37.67 60.72 33.8 60.28L34.88 51.49H51.59L52.52 57.72Z" fill="#E0855C"/>
<path d="M57.91 37.13C57.91 37.13 59.31 31.62 62.77 34.06C66.23 36.5 62.77 44.56 57.89 44.51C57.89 44.51 56.59 39.11 57.91 37.13Z" fill="#F5A784"/>
<path d="M61.58 36.63C60.8703 36.9547 60.2595 37.462 59.81 38.1C59.2792 38.6425 58.8671 39.2896 58.6 40C58.55 40.23 58.86 40.32 58.99 40.17C59.35 39.75 59.63 39.25 59.99 38.8C60.2725 39.0815 60.6141 39.2967 60.99 39.43C61.29 39.5 61.47 39.11 61.31 38.89C61.085 38.6128 60.797 38.3933 60.47 38.25C60.9551 37.8656 61.4129 37.4479 61.84 37C61.8775 36.9616 61.9005 36.9113 61.9048 36.8578C61.9091 36.8043 61.8946 36.7509 61.8637 36.707C61.8328 36.6631 61.7876 36.6313 61.7358 36.6172C61.6839 36.6032 61.6288 36.6077 61.58 36.63Z" fill="#E0855C"/>
<path d="M29 36.61C29 36.61 27.61 31.1 24.14 33.54C20.67 35.98 24.11 44 29 44C29 44 30.3 38.59 29 36.61Z" fill="#F5A784"/>
<path d="M25.31 36.11C26.0153 36.4371 26.6247 36.9398 27.08 37.57C27.6167 38.1445 28.0256 38.8261 28.28 39.57C28.34 39.79 28.02 39.89 27.89 39.74C27.53 39.31 27.25 38.82 26.89 38.37C26.613 38.6561 26.2694 38.8691 25.89 38.99C25.59 39.07 25.42 38.68 25.57 38.46C25.7989 38.1826 26.0902 37.9633 26.42 37.82C25.9214 37.4223 25.4565 36.9841 25.03 36.51C24.977 36.4729 24.9408 36.4162 24.9296 36.3524C24.9183 36.2887 24.9329 36.223 24.97 36.17C25.0071 36.117 25.0638 36.0808 25.1276 36.0696C25.1913 36.0583 25.257 36.0729 25.31 36.11Z" fill="#E0855C"/>
<path d="M58.63 30.25C55.37 14.65 43.41 15.74 43.41 15.74C43.41 15.74 31.41 14.65 28.2 30.25C26.9268 36.0461 27.4108 42.0903 29.59 47.61C31.7 52.79 35.75 58.37 43.41 58.37C51.07 58.37 55.13 52.79 57.24 47.61C59.4139 42.089 59.8977 36.0465 58.63 30.25Z" fill="#F5A784"/>
<path d="M44.27 42.77C43.57 42.7 42 43.19 41.63 42.46C41.26 41.73 42.26 38.11 42.39 37.46C42.9319 35.271 43.3558 33.0545 43.66 30.82C43.66 30.7 43.46 30.64 43.42 30.82C42 34.49 41.61 39 40.83 42.91C40.8195 42.9614 40.8207 43.0146 40.8335 43.0655C40.8463 43.1164 40.8704 43.1638 40.904 43.2041C40.9376 43.2445 40.9799 43.2767 41.0277 43.2985C41.0754 43.3203 41.1275 43.3311 41.18 43.33C42.18 43.26 43.18 43.43 44.18 43.38C44.55 43.37 44.63 42.8 44.27 42.77Z" fill="#E0855C"/>
<path d="M38.5 47.23H48.12C48.12 47.23 46.31 50.64 43.31 50.64C40.31 50.64 38.5 47.23 38.5 47.23Z" fill="white"/>
<path d="M36.78 35.73C36.78 35.73 35.46 36.22 35.66 33.89C35.84 31.8 36.78 32.08 36.78 32.08C36.78 32.08 37.69 32.08 37.55 33.9C37.41 35.72 36.78 35.73 36.78 35.73Z" fill="#3B2645"/>
<path d="M49.33 35.73C49.33 35.73 48.01 36.22 48.21 33.89C48.39 31.8 49.33 32.08 49.33 32.08C49.33 32.08 50.24 32.08 50.1 33.9C49.96 35.72 49.33 35.73 49.33 35.73Z" fill="#3B2645"/>
<path d="M38.54 28.86C37.41 28.29 35.3 28.13 34.47 29.31C34.4402 29.3636 34.425 29.424 34.426 29.4853C34.4269 29.5466 34.4439 29.6066 34.4753 29.6592C34.5067 29.7119 34.5513 29.7554 34.6048 29.7853C34.6583 29.8153 34.7187 29.8307 34.78 29.83C35.34 29.83 35.78 29.53 36.4 29.49C36.9987 29.4637 37.5967 29.5555 38.16 29.76C38.277 29.7988 38.4043 29.7921 38.5166 29.7412C38.6288 29.6904 38.7178 29.5991 38.7657 29.4855C38.8137 29.372 38.8171 29.2445 38.7752 29.1286C38.7334 29.0127 38.6494 28.9168 38.54 28.86Z" fill="#3B2645"/>
<path d="M51.09 28.86C49.96 28.29 47.85 28.13 47.03 29.31C47.0006 29.3628 46.9854 29.4224 46.9859 29.4828C46.9864 29.5433 47.0025 29.6026 47.0328 29.6549C47.063 29.7073 47.1062 29.751 47.1583 29.7816C47.2104 29.8123 47.2696 29.829 47.33 29.83C47.89 29.83 48.39 29.53 48.95 29.49C49.5519 29.4645 50.1531 29.5562 50.72 29.76C50.8355 29.7921 50.9588 29.7808 51.0665 29.7281C51.1742 29.6754 51.2589 29.5851 51.3045 29.4742C51.3501 29.3633 51.3534 29.2396 51.3139 29.1264C51.2744 29.0132 51.1947 28.9184 51.09 28.86Z" fill="#3B2645"/>
<path d="M34.42 18.81C31.1631 23.3361 28.8599 28.4767 27.65 33.92L26.14 31.27C26.14 31.27 28.61 16.66 34.42 18.81Z" fill="#3B2645"/>
<path d="M33.6 12.05C33.6 12.05 38.35 7.46 55.07 9.29C57.4913 9.56414 59.9262 8.90626 61.88 7.45C61.88 7.45 65 16.81 56.44 19.57C47.88 22.33 38.85 21.9 34.44 18.81C30.03 15.72 33.6 12.05 33.6 12.05Z" fill="#3B2645"/>
<path d="M39.8 37.58H31C30.6393 37.58 30.2934 37.4367 30.0383 37.1817C29.7833 36.9266 29.64 36.5807 29.64 36.22V31.62C29.64 31.2593 29.7833 30.9134 30.0383 30.6583C30.2934 30.4033 30.6393 30.26 31 30.26H39.8C40.1607 30.26 40.5066 30.4033 40.7617 30.6583C41.0167 30.9134 41.16 31.2593 41.16 31.62V36.22C41.16 36.5807 41.0167 36.9266 40.7617 37.1817C40.5066 37.4367 40.1607 37.58 39.8 37.58ZM31 31C30.8382 31 30.6831 31.0643 30.5687 31.1787C30.4543 31.2931 30.39 31.4482 30.39 31.61V36.21C30.39 36.3718 30.4543 36.5269 30.5687 36.6413C30.6831 36.7557 30.8382 36.82 31 36.82H39.8C39.9618 36.82 40.1169 36.7557 40.2313 36.6413C40.3457 36.5269 40.41 36.3718 40.41 36.21V31.61C40.41 31.4482 40.3457 31.2931 40.2313 31.1787C40.1169 31.0643 39.9618 31 39.8 31H31Z" fill="#DADEEA"/>
<path d="M55.3 37.58H46.52C46.1593 37.58 45.8134 37.4367 45.5583 37.1817C45.3033 36.9266 45.16 36.5807 45.16 36.22V31.62C45.16 31.2593 45.3033 30.9134 45.5583 30.6583C45.8134 30.4033 46.1593 30.26 46.52 30.26H55.3C55.6607 30.26 56.0066 30.4033 56.2617 30.6583C56.5167 30.9134 56.66 31.2593 56.66 31.62V36.22C56.66 36.5807 56.5167 36.9266 56.2617 37.1817C56.0066 37.4367 55.6607 37.58 55.3 37.58ZM46.52 31C46.3582 31 46.2031 31.0643 46.0887 31.1787C45.9743 31.2931 45.91 31.4482 45.91 31.61V36.21C45.91 36.3718 45.9743 36.5269 46.0887 36.6413C46.2031 36.7557 46.3582 36.82 46.52 36.82H55.3C55.4618 36.82 55.6169 36.7557 55.7313 36.6413C55.8457 36.5269 55.91 36.3718 55.91 36.21V31.61C55.91 31.4482 55.8457 31.2931 55.7313 31.1787C55.6169 31.0643 55.4618 31 55.3 31H46.52Z" fill="#DADEEA"/>
<path d="M45.54 33.54H40.4V34.29H45.54V33.54Z" fill="#DADEEA"/>
<path d="M61.88 76.74V101.9H24.8L27.51 76.74C27.51 76.74 34.83 81.38 43.41 81.38C51.99 81.38 61.88 76.74 61.88 76.74Z" fill="#B8C3E3"/>
<path d="M32.34 101.9H1.25C1.25 101.9 1.25 77.16 5.07 74.72C8 72.87 22.76 67.8 29.7 65.46C30.22 70.18 32.1 88 32.34 101.9Z" fill="#3B2645"/>
<path d="M85.57 101.9H53.57C53.83 87.65 55.77 69.39 56.24 65.17C62.7 67.33 78.72 72.79 81.76 74.72C85.57 77.16 85.57 101.9 85.57 101.9Z" fill="#3B2645"/>
</g>
<defs>
<clipPath id="clip0_8:992">
<rect width="89.01" height="101.9" fill="white"/>
</clipPath>
</defs>
</svg>
