<svg width="90" height="101" viewBox="0 0 90 101" fill="none" xmlns="http://www.w3.org/2000/svg">
<g clip-path="url(#clip0_8:621)">
<path d="M27.64 31.88C27.64 31.88 26.22 24.04 27.86 18.56C28.2111 17.4002 28.8443 16.3456 29.703 15.4905C30.5616 14.6353 31.6188 14.0064 32.78 13.66C32.78 13.66 33.65 8.18 44.91 7.76C56.17 7.34 65.1 12.14 62.91 31.91L60.1 36.38L44.81 21.61C44.81 21.61 31.7 30.08 30.55 34.11C29.4 38.14 27.64 31.88 27.64 31.88Z" fill="#3B2645"/>
<path d="M55.01 62.72L45.52 64.31V64.57L44.73 64.45L43.95 64.57V64.31L34.8 62.72L35.3 58.72L36.38 49.94H53.09L54.02 56.16L55.01 62.72Z" fill="#F5A784"/>
<path d="M54 56.16C46.77 59.48 39.15 59.16 35.28 58.72L36.36 49.94H53.09L54 56.16Z" fill="#E0855C"/>
<path d="M59.41 35.57C59.41 35.57 60.8 30.06 64.27 32.5C67.74 34.94 64.27 43 59.39 43C59.39 43 58.08 37.55 59.41 35.57Z" fill="#F5A784"/>
<path d="M63.07 35.07C62.3621 35.3976 61.752 35.9043 61.3 36.54C60.7591 37.1113 60.3495 37.7939 60.1 38.54C60.04 38.76 60.36 38.86 60.49 38.71C60.85 38.28 61.13 37.79 61.49 37.34C61.7697 37.6227 62.1124 37.8351 62.49 37.96C62.79 38.03 62.96 37.65 62.81 37.43C62.5817 37.1495 62.2905 36.9268 61.96 36.78C62.4609 36.385 62.9261 35.9467 63.35 35.47C63.403 35.4329 63.4392 35.3762 63.4504 35.3124C63.4617 35.2487 63.4471 35.183 63.41 35.13C63.3729 35.077 63.3162 35.0408 63.2524 35.0296C63.1887 35.0183 63.123 35.0329 63.07 35.07Z" fill="#E0855C"/>
<path d="M30.47 35.05C30.47 35.05 29.07 29.54 25.61 31.98C22.15 34.42 25.61 42.48 30.49 42.43C30.49 42.43 31.79 37 30.47 35.05Z" fill="#F5A784"/>
<path d="M26.81 34.55C27.5127 34.8723 28.1192 35.372 28.57 36C29.114 36.5707 29.5269 37.2533 29.78 38C29.78 38.22 29.52 38.32 29.39 38.17C29.03 37.74 28.75 37.25 28.39 36.79C28.1101 37.0748 27.7677 37.2905 27.39 37.42C27.09 37.49 26.92 37.11 27.07 36.88C27.3016 36.6055 27.5922 36.3868 27.92 36.24C27.4191 35.8451 26.9539 35.4067 26.53 34.93C26.4796 34.8929 26.446 34.8372 26.4367 34.7754C26.4273 34.7135 26.4429 34.6504 26.48 34.6C26.5171 34.5496 26.5728 34.516 26.6346 34.5067C26.6965 34.4973 26.7596 34.5129 26.81 34.55Z" fill="#E0855C"/>
<path d="M60.12 28.69C56.87 13.09 44.91 14.19 44.91 14.19C44.91 14.19 32.91 13.09 29.69 28.69C28.4217 34.4865 28.9055 40.5292 31.08 46.05C33.19 51.24 37.24 56.82 44.91 56.82C52.58 56.82 56.62 51.24 58.73 46.05C60.9092 40.5303 61.3932 34.4862 60.12 28.69Z" fill="#F5A784"/>
<path d="M45.76 41.21C45.07 41.14 43.49 41.64 43.13 40.9C42.77 40.16 43.76 36.55 43.89 35.9C44.4311 33.7142 44.855 31.501 45.16 29.27C45.16 29.15 44.96 29.09 44.91 29.21C43.49 32.92 43.11 37.44 42.33 41.35C42.3192 41.401 42.3203 41.4537 42.3331 41.5042C42.3459 41.5547 42.3702 41.6016 42.404 41.6412C42.4379 41.6808 42.4803 41.7121 42.5282 41.7327C42.576 41.7533 42.628 41.7627 42.68 41.76C43.68 41.7 44.68 41.86 45.68 41.82C46.05 41.81 46.12 41.25 45.76 41.21Z" fill="#E0855C"/>
<path d="M38.27 34.17C38.27 34.17 36.96 34.66 37.16 32.34C37.34 30.24 38.27 30.52 38.27 30.52C38.27 30.52 39.19 30.52 39.05 32.35C38.91 34.18 38.27 34.17 38.27 34.17Z" fill="#3B2645"/>
<path d="M50.83 34.17C50.83 34.17 49.51 34.66 49.71 32.34C49.89 30.24 50.83 30.52 50.83 30.52C50.83 30.52 51.74 30.52 51.6 32.35C51.46 34.18 50.83 34.17 50.83 34.17Z" fill="#3B2645"/>
<path d="M40 27.31C38.87 26.73 36.75 26.58 35.93 27.75C35.8981 27.8031 35.881 27.8637 35.8802 27.9256C35.8794 27.9875 35.8951 28.0485 35.9256 28.1024C35.9561 28.1563 36.0003 28.2011 36.0538 28.2323C36.1073 28.2635 36.1681 28.28 36.23 28.28C36.79 28.28 37.29 27.98 37.85 27.93C38.4519 27.9045 39.0531 27.9962 39.62 28.2C40.18 28.37 40.54 27.56 40 27.31Z" fill="#3B2645"/>
<path d="M52.59 27.31C51.46 26.73 49.35 26.58 48.52 27.75C48.4909 27.8043 48.4762 27.8652 48.4774 27.9268C48.4785 27.9884 48.4954 28.0487 48.5265 28.1018C48.5577 28.155 48.6019 28.1993 48.655 28.2305C48.7082 28.2617 48.7684 28.2788 48.83 28.28C49.39 28.28 49.88 27.98 50.45 27.93C51.0487 27.9037 51.6467 27.9955 52.21 28.2C52.3231 28.2283 52.4425 28.2153 52.5469 28.1635C52.6513 28.1116 52.7338 28.0243 52.7796 27.9171C52.8253 27.8099 52.8314 27.6899 52.7966 27.5786C52.7619 27.4673 52.6886 27.3721 52.59 27.31Z" fill="#3B2645"/>
<path d="M35.92 17.26C32.6569 21.7801 30.3499 26.9181 29.14 32.36L27.64 29.72C27.64 29.72 30.11 15.11 35.92 17.26Z" fill="#3B2645"/>
<path d="M87.07 100.47H2.75C2.75 100.47 2.75 75.73 6.57 73.29C10.39 70.85 34.8 62.83 34.8 62.83H55C55 62.83 79.4 70.83 83.22 73.29C87.04 75.75 87.07 100.47 87.07 100.47Z" fill="#F5A784"/>
<path d="M87.07 100.47H2.75C2.75 100.47 2.75 75.73 6.57 73.29C7.16039 72.9521 7.76786 72.6451 8.39 72.37C9.76 71.75 11.63 71 13.75 70.19C17.84 68.64 22.84 66.89 26.96 65.48C31.41 63.95 34.8 62.83 34.8 62.83L40.64 73.36L44.64 80.61L48.72 73.61L55 62.83C55 62.83 58.4 63.95 62.86 65.49C66.79 66.83 71.54 68.49 75.52 69.99C78.01 70.93 80.19 71.8 81.67 72.5C82.2062 72.7232 82.7244 72.9873 83.22 73.29C87.07 75.73 87.07 100.47 87.07 100.47Z" fill="#DADEEA"/>
<path d="M49 78.15L47.2 81.65C47.33 84.14 48.32 93.99 48.44 100.47H41.06C40.71 93.76 41.96 84.19 42.06 81.65L40.25 78.15L39.86 74.75L40.6 73.36L42.6 69.61H46.6L48.72 73.61L49.34 74.76L49 78.15Z" fill="#FF0066"/>
<path d="M31.07 64.08L35.3 58.84L42.79 69.61L40.28 78.15L31.07 64.08Z" fill="#B8C3E3"/>
<path d="M58.28 63.92L54.36 58.52L46.5 69.61L48.97 78.15L58.28 63.92Z" fill="#B8C3E3"/>
<path d="M47.73 44.14C46.8867 44.7744 45.9701 45.3049 45 45.72C43.8 46.06 42.76 45.53 41.59 45.55C41.5556 45.5508 41.5222 45.5614 41.4936 45.5806C41.4651 45.5998 41.4426 45.6268 41.429 45.6584C41.4153 45.6899 41.4109 45.7248 41.4164 45.7587C41.4219 45.7927 41.4371 45.8244 41.46 45.85C43.46 47.6 46.67 46.58 48.14 44.7C48.39 44.4 48.11 43.93 47.73 44.14Z" fill="#E0855C"/>
<path d="M35.92 16.68C35.92 16.68 37.49 18.61 47.1 19.46C56.71 20.31 60.72 32.91 60.72 32.91C60.72 32.91 64.17 31.21 61.72 24.7C59.27 18.19 51.62 11.52 51.62 11.52C51.62 11.52 35.56 8.94 35.92 16.68Z" fill="#3B2645"/>
<path d="M32.78 9.00001C32.78 8.69001 32.3 8.60001 32.23 8.92001C31.8939 10.31 31.8939 11.76 32.23 13.15C31 12.48 29.65 11.64 28.31 11.86C28.08 11.86 28.11 12.24 28.31 12.3C29.8375 12.813 31.3006 13.5009 32.67 14.35C32.7449 14.3913 32.8301 14.41 32.9154 14.4036C33.0007 14.3972 33.0823 14.3662 33.1502 14.3142C33.218 14.2622 33.2693 14.1916 33.2977 14.1109C33.3261 14.0302 33.3304 13.9431 33.31 13.86C33.0036 12.2568 32.8263 10.6316 32.78 9.00001Z" fill="#3B2645"/>
<path d="M14.94 100.47H2.75C2.75 100.47 2.75 75.73 6.57 73.29C7.16039 72.9521 7.76786 72.6451 8.39 72.37C10.87 77 14.38 86 14.94 100.47Z" fill="#B8C3E3"/>
<path d="M87.07 100.47H75.19C75.74 86.14 79.19 77.16 81.68 72.47C82.2162 72.6932 82.7344 72.9573 83.23 73.26C87.07 75.73 87.07 100.47 87.07 100.47Z" fill="#B8C3E3"/>
</g>
<defs>
<clipPath id="clip0_8:621">
<rect width="89.01" height="100.47" fill="white"/>
</clipPath>
</defs>
</svg>
