<svg width="90" height="103" viewBox="0 0 90 103" fill="none" xmlns="http://www.w3.org/2000/svg">
<g clip-path="url(#clip0_8:791)">
<path d="M26.14 33.65C26.14 33.65 24.72 25.82 26.36 20.34C26.7095 19.1794 27.3422 18.1239 28.201 17.2685C29.0599 16.4132 30.1179 15.7848 31.28 15.44C31.28 15.44 32.15 9.95 43.41 9.54C54.67 9.13 63.6 13.92 61.41 33.68L58.6 38.15L43.31 23.38C43.31 23.38 30.21 31.86 29.05 35.88C27.89 39.9 26.14 33.65 26.14 33.65Z" fill="#E36C29"/>
<path d="M85.57 102.13H1.25C1.25 102.13 1.25 77.39 5.07 74.94C7.62 73.32 19.23 69.25 26.75 66.69C30.55 65.39 33.3 64.49 33.3 64.49H53.51C53.51 64.49 56.3 65.4 60.13 66.71C67.64 69.27 79.2 73.32 81.73 74.94C85.57 77.39 85.57 102.13 85.57 102.13Z" fill="#F5A784"/>
<path d="M53.51 64.49L44.02 66.09V66.35L43.23 66.23L42.45 66.35V66.09L33.3 64.49L33.8 60.5L34.88 51.72H51.59L52.52 57.94L53.51 64.49Z" fill="#F5A784"/>
<path d="M52.52 57.94C45.29 61.25 37.67 60.94 33.8 60.5L34.88 51.71H51.59L52.52 57.94Z" fill="#E0855C"/>
<path d="M57.91 37.35C57.91 37.35 59.31 31.84 62.77 34.28C66.23 36.72 62.77 44.78 57.89 44.73C57.89 44.73 56.59 39.33 57.91 37.35Z" fill="#F5A784"/>
<path d="M61.58 36.85C60.8703 37.1748 60.2595 37.682 59.81 38.32C59.2745 38.8742 58.8622 39.5353 58.6 40.26C58.55 40.49 58.86 40.58 58.99 40.43C59.35 40.01 59.63 39.52 59.99 39.06C60.2725 39.3415 60.6141 39.5567 60.99 39.69C61.29 39.76 61.47 39.38 61.31 39.15C61.085 38.8728 60.797 38.6533 60.47 38.51C60.9664 38.1098 61.4312 37.6719 61.86 37.2C61.8923 37.1592 61.9098 37.1087 61.9096 37.0567C61.9095 37.0047 61.8917 36.9543 61.8592 36.9136C61.8267 36.873 61.7814 36.8446 61.7307 36.8331C61.68 36.8215 61.6269 36.8275 61.58 36.85Z" fill="#E0855C"/>
<path d="M29 36.83C29 36.83 27.61 31.32 24.14 33.76C20.67 36.2 24.14 44.25 29.02 44.21C29 44.21 30.3 38.81 29 36.83Z" fill="#F5A784"/>
<path d="M25.31 36.33C26.0179 36.6576 26.6281 37.1643 27.08 37.8C27.6126 38.3546 28.0216 39.0158 28.28 39.74C28.34 39.97 28.02 40.06 27.89 39.91C27.53 39.49 27.25 38.99 26.89 38.54C26.613 38.8261 26.2695 39.0391 25.89 39.16C25.59 39.24 25.42 38.85 25.57 38.63C25.7989 38.3526 26.0902 38.1333 26.42 37.99C25.9215 37.5923 25.4566 37.1541 25.03 36.68C24.9978 36.6392 24.9803 36.5887 24.9804 36.5367C24.9806 36.4847 24.9983 36.4342 25.0308 36.3936C25.0633 36.353 25.1086 36.3246 25.1593 36.3131C25.21 36.3015 25.2631 36.3075 25.31 36.33Z" fill="#E0855C"/>
<path d="M58.63 30.47C55.37 14.87 43.41 16 43.41 16C43.41 16 31.41 14.91 28.2 30.51C26.9268 36.3062 27.4108 42.3503 29.59 47.87C31.7 53 35.75 58.6 43.41 58.6C51.07 58.6 55.13 53 57.24 47.83C59.4145 42.3092 59.8983 36.2665 58.63 30.47Z" fill="#F5A784"/>
<path d="M44.27 43C43.57 42.93 42 43.42 41.63 42.69C41.26 41.96 42.26 38.34 42.39 37.69C42.9319 35.501 43.3558 33.2845 43.66 31.05C43.66 30.93 43.46 30.87 43.42 31C41.99 34.71 41.61 39.23 40.83 43.13C40.8195 43.1814 40.8207 43.2346 40.8335 43.2855C40.8463 43.3364 40.8704 43.3838 40.9041 43.4241C40.9377 43.4645 40.9799 43.4967 41.0277 43.5185C41.0755 43.5403 41.1275 43.5511 41.18 43.55C42.18 43.48 43.18 43.65 44.18 43.6C44.55 43.59 44.63 43 44.27 43Z" fill="#E0855C"/>
<path d="M38.5 47.46H48.12C48.12 47.46 46.31 50.86 43.31 50.86C40.31 50.86 38.5 47.46 38.5 47.46Z" fill="white"/>
<path d="M36.78 36C36.78 36 35.46 36.49 35.66 34.16C35.84 32.07 36.78 32.35 36.78 32.35C36.78 32.35 37.69 32.35 37.55 34.18C37.41 36.01 36.78 36 36.78 36Z" fill="#3B2645"/>
<path d="M49.33 36C49.33 36 48.01 36.49 48.21 34.16C48.39 32.07 49.33 32.35 49.33 32.35C49.33 32.35 50.24 32.35 50.1 34.18C49.96 36.01 49.33 36 49.33 36Z" fill="#3B2645"/>
<path d="M38.54 29.08C37.41 28.51 35.3 28.35 34.47 29.53C34.4409 29.5843 34.4262 29.6452 34.4274 29.7068C34.4285 29.7684 34.4455 29.8287 34.4766 29.8818C34.5077 29.935 34.5519 29.9793 34.605 30.0105C34.6582 30.0417 34.7184 30.0588 34.78 30.06C35.34 30.06 35.78 29.75 36.4 29.71C36.9987 29.6837 37.5967 29.7755 38.16 29.98C38.277 30.0188 38.4043 30.0121 38.5166 29.9613C38.6288 29.9104 38.7178 29.8191 38.7657 29.7055C38.8137 29.592 38.8171 29.4645 38.7752 29.3486C38.7334 29.2327 38.6494 29.1368 38.54 29.08Z" fill="#3B2645"/>
<path d="M51.09 29.08C49.96 28.51 47.85 28.35 47.03 29.53C47.0012 29.5836 46.9865 29.6436 46.9871 29.7044C46.9878 29.7652 47.0039 29.8248 47.0338 29.8777C47.0638 29.9307 47.1067 29.9751 47.1584 30.007C47.2102 30.0389 47.2693 30.0571 47.33 30.06C47.89 30.06 48.39 29.75 48.95 29.71C49.5519 29.6845 50.1531 29.7762 50.72 29.98C50.8355 30.0121 50.9588 30.0008 51.0665 29.9481C51.1742 29.8954 51.2589 29.8051 51.3045 29.6942C51.3501 29.5833 51.3534 29.4596 51.3139 29.3464C51.2744 29.2332 51.1947 29.1384 51.09 29.08Z" fill="#3B2645"/>
<path d="M34.42 19C31.1622 23.5219 28.8588 28.6595 27.65 34.1L26.14 31.45C26.14 31.45 28.61 16.88 34.42 19Z" fill="#E36C29"/>
<path d="M85.57 102.13H1.25C1.25 102.13 1.25 77.39 5.07 74.94C7.62 73.32 19.23 69.25 26.75 66.69C28.22 71.36 32.75 81.81 43.45 81.81C54.15 81.81 58.66 71.39 60.13 66.71C67.64 69.27 79.2 73.32 81.73 74.94C85.57 77.39 85.57 102.13 85.57 102.13Z" fill="#FF0066"/>
<path d="M34.42 19C34.42 19 41.96 24.27 48.12 22.55C54.28 20.83 56.51 33.26 52.52 38.11C52.52 38.11 62.52 32.33 59.31 22.55C56.1 12.77 34.07 8.00001 34.42 19Z" fill="#E36C29"/>
</g>
<defs>
<clipPath id="clip0_8:791">
<rect width="89.01" height="102.13" fill="white"/>
</clipPath>
</defs>
</svg>
