<svg width="90" height="101" viewBox="0 0 90 101" fill="none" xmlns="http://www.w3.org/2000/svg">
<g clip-path="url(#clip0_8:650)">
<path d="M19.76 30C20.32 27.9 18.26 25.35 19.82 23.72C20.13 23.4 20.56 23.17 20.87 22.85C22.03 21.63 21.21 19.77 21.25 18.16C21.3061 17.3189 21.5922 16.5093 22.0772 15.8197C22.5622 15.1302 23.2273 14.5872 24 14.25C24.5023 14.0584 24.9931 13.838 25.47 13.59C26.87 12.69 26.99 10.79 28.18 9.67C29.55 8.35 31.89 8.5 33.82 9C34.4647 9.2154 35.1403 9.32351 35.82 9.32C36.6541 9.16042 37.4428 8.81899 38.13 8.32C39.9 7.32 42.13 6.49 44.06 7.32C44.65 7.57 45.17 7.95 45.77 8.17C48.48 9.17 51.77 6.44 54.25 7.78C55.43 8.41 55.97 9.78 57.11 10.43C58.73 11.43 61.03 10.78 62.68 11.69C63.2655 12.0627 63.744 12.5814 64.0683 13.1951C64.3927 13.8087 64.5518 14.4962 64.53 15.19C64.4318 15.9911 64.542 16.804 64.85 17.55C65.31 18.34 66.3 18.71 67.05 19.27C67.4665 19.5864 67.8154 19.9829 68.0763 20.4362C68.3372 20.8896 68.5047 21.3905 68.569 21.9096C68.6333 22.4286 68.5931 22.9553 68.4507 23.4586C68.3083 23.9619 68.0667 24.4316 67.74 24.84C67.24 25.44 66.51 26.15 66.89 26.84C67.0602 27.0698 67.2743 27.2636 67.52 27.41C68.44 28.0771 69.0662 29.0742 69.2675 30.1926C69.4688 31.3111 69.2296 32.464 68.6 33.41C68.2115 33.869 67.854 34.3534 67.53 34.86C66.53 36.86 68.28 39.38 67.18 41.34C66.33 42.87 63.99 43.45 63.43 45.09C63.3 45.49 63.29 45.92 63.16 46.33C62.8813 46.9165 62.4612 47.4246 61.9376 47.8086C61.414 48.1926 60.8031 48.4405 60.16 48.53C58.84 48.81 57.45 48.77 56.16 49.04C53.8 49.5 51.38 50.92 49.16 50.04C48.06 49.62 47.16 48.67 45.97 48.62C44.47 48.56 43.43 49.91 42.14 50.62C41.3954 51.0115 40.5625 51.2043 39.7216 51.1798C38.8808 51.1553 38.0605 50.9142 37.34 50.48C36.23 49.78 35.48 48.62 34.24 48.13C32.73 47.52 30.98 48.08 29.34 47.9C28.4916 47.8161 27.6787 47.5166 26.9786 47.0301C26.2785 46.5435 25.7144 45.886 25.34 45.12C25.1725 44.5206 24.8716 43.9668 24.46 43.5C23.84 42.97 22.86 42.98 22.14 42.56C20.86 41.82 20.88 40.15 21.01 38.77C21.15 37.18 20.28 36.1 19.47 34.77C18.17 32.77 19.21 32.06 19.76 30Z" fill="#3B2645"/>
<path d="M26.14 31.88C26.14 31.88 24.72 24.04 26.36 18.56C26.7111 17.4002 27.3443 16.3456 28.203 15.4905C29.0616 14.6353 30.1188 14.0064 31.28 13.66C31.28 13.66 32.15 8.18 43.41 7.76C54.67 7.34 63.6 12.14 61.41 31.91L58.6 36.38L43.31 21.61C43.31 21.61 30.21 30.08 29.05 34.11C27.89 38.14 26.14 31.88 26.14 31.88Z" fill="#3B2645"/>
<path d="M81.74 73.17C77.9 70.73 53.51 62.72 53.51 62.72H33.3C33.3 62.72 8.90999 70.72 5.07999 73.17C1.24999 75.62 1.23999 100.35 1.23999 100.35H85.57C85.57 100.35 85.57 75.61 81.74 73.17Z" fill="#F5A784"/>
<path d="M53.51 62.72L44.02 64.31V64.57L43.23 64.45L42.45 64.57V64.31L33.3 62.72L33.8 58.72L34.88 49.94H51.59L52.52 56.16L53.51 62.72Z" fill="#F5A784"/>
<path d="M52.52 56.16C45.29 59.48 37.67 59.16 33.8 58.72L34.88 49.94H51.59L52.52 56.16Z" fill="#E0855C"/>
<path d="M57.91 35.57C57.91 35.57 59.31 30.06 62.77 32.5C66.23 34.94 62.77 43 57.89 43C57.89 43 56.59 37.55 57.91 35.57Z" fill="#F5A784"/>
<path d="M61.58 35.07C60.8703 35.3947 60.2595 35.902 59.81 36.54C59.266 37.1107 58.8531 37.7933 58.6 38.54C58.55 38.76 58.86 38.86 58.99 38.71C59.35 38.28 59.63 37.79 59.99 37.34C60.2729 37.6187 60.6146 37.8306 60.99 37.96C61.0549 37.9676 61.1205 37.9564 61.1792 37.9277C61.2378 37.8989 61.2869 37.854 61.3207 37.7981C61.3544 37.7422 61.3714 37.6777 61.3695 37.6125C61.3676 37.5472 61.3469 37.4839 61.31 37.43C61.0856 37.1497 60.7977 36.9269 60.47 36.78C60.9664 36.3798 61.4312 35.9419 61.86 35.47C61.9131 35.4329 61.9492 35.3762 61.9604 35.3124C61.9717 35.2487 61.9571 35.183 61.92 35.13C61.8829 35.077 61.8262 35.0408 61.7624 35.0296C61.6987 35.0183 61.6331 35.0329 61.58 35.07Z" fill="#E0855C"/>
<path d="M29 35.05C29 35.05 27.58 29.54 24.11 32C20.64 34.46 24.11 42.5 28.99 42.45C29 42.43 30.3 37 29 35.05Z" fill="#F5A784"/>
<path d="M25.31 34.55C26.0155 34.872 26.6254 35.3716 27.08 36C27.6209 36.5713 28.0304 37.2539 28.28 38C28.34 38.22 28.02 38.32 27.89 38.17C27.53 37.74 27.25 37.25 26.89 36.79C26.6136 37.0791 26.2701 37.2955 25.89 37.42C25.59 37.49 25.42 37.11 25.57 36.88C25.8016 36.6055 26.0921 36.3868 26.42 36.24C25.919 35.8451 25.4539 35.4067 25.03 34.93C24.9796 34.8929 24.946 34.8372 24.9366 34.7754C24.9272 34.7135 24.9428 34.6504 24.98 34.6C25.0171 34.5496 25.0727 34.516 25.1346 34.5067C25.1965 34.4973 25.2596 34.5129 25.31 34.55Z" fill="#E0855C"/>
<path d="M58.63 28.69C55.37 13.09 43.41 14.19 43.41 14.19C43.41 14.19 31.41 13.09 28.2 28.69C26.9268 34.4862 27.4108 40.5303 29.59 46.05C31.7 51.24 35.75 56.82 43.41 56.82C51.07 56.82 55.13 51.24 57.24 46.05C59.4145 40.5292 59.8983 34.4865 58.63 28.69Z" fill="#F5A784"/>
<path d="M44.27 41.21C43.57 41.14 42 41.64 41.63 40.9C41.26 40.16 42.26 36.55 42.39 35.9C42.9311 33.7142 43.355 31.501 43.66 29.27C43.66 29.15 43.46 29.09 43.42 29.21C41.99 32.92 41.61 37.44 40.83 41.35C40.8192 41.401 40.8203 41.4537 40.8331 41.5042C40.8459 41.5547 40.8702 41.6016 40.904 41.6412C40.9379 41.6808 40.9803 41.7121 41.0282 41.7327C41.076 41.7533 41.128 41.7627 41.18 41.76C42.18 41.7 43.18 41.86 44.18 41.82C44.55 41.81 44.63 41.25 44.27 41.21Z" fill="#E0855C"/>
<path d="M38.5 45.68H48.12C48.12 45.68 46.31 49.09 43.31 49.09C40.31 49.09 38.5 45.68 38.5 45.68Z" fill="white"/>
<path d="M36.78 34.17C36.78 34.17 35.46 34.66 35.66 32.34C35.84 30.24 36.78 30.52 36.78 30.52C36.78 30.52 37.69 30.52 37.55 32.35C37.41 34.18 36.78 34.17 36.78 34.17Z" fill="#3B2645"/>
<path d="M49.33 34.17C49.33 34.17 48.01 34.66 48.21 32.34C48.39 30.24 49.33 30.52 49.33 30.52C49.33 30.52 50.24 30.52 50.1 32.35C49.96 34.18 49.33 34.17 49.33 34.17Z" fill="#3B2645"/>
<path d="M38.54 27.31C37.41 26.73 35.3 26.58 34.47 27.75C34.4409 27.8043 34.4262 27.8652 34.4274 27.9268C34.4285 27.9884 34.4455 28.0487 34.4766 28.1018C34.5077 28.155 34.5519 28.1993 34.605 28.2305C34.6582 28.2617 34.7184 28.2788 34.78 28.28C35.34 28.28 35.78 27.98 36.4 27.93C36.9987 27.9037 37.5967 27.9955 38.16 28.2C38.2731 28.2283 38.3925 28.2153 38.4969 28.1635C38.6013 28.1116 38.6838 28.0243 38.7296 27.9171C38.7753 27.8099 38.7814 27.6899 38.7467 27.5786C38.7119 27.4673 38.6386 27.3721 38.54 27.31Z" fill="#3B2645"/>
<path d="M51.09 27.31C49.96 26.73 47.85 26.58 47.03 27.75C46.9982 27.8031 46.981 27.8637 46.9802 27.9256C46.9794 27.9875 46.9951 28.0485 47.0256 28.1024C47.0561 28.1563 47.1003 28.2011 47.1538 28.2323C47.2073 28.2635 47.2681 28.28 47.33 28.28C47.89 28.28 48.39 27.98 48.95 27.93C49.5519 27.9045 50.1531 27.9962 50.72 28.2C50.832 28.2241 50.9489 28.2082 51.0505 28.1551C51.152 28.1019 51.2317 28.0149 51.2756 27.9091C51.3196 27.8033 51.3251 27.6854 51.2912 27.576C51.2573 27.4665 51.1861 27.3724 51.09 27.31Z" fill="#3B2645"/>
<path d="M34.42 17.26C34.42 17.26 41.55 18.71 46.42 16.03C51.29 13.35 59.42 27.16 59.23 32.91L60.76 26.36L53.43 12.52L39.54 11.52C39.54 11.52 33.08 15 34.42 17.26Z" fill="#3B2645"/>
<path d="M34.42 17.26C31.1622 21.7819 28.8588 26.9195 27.65 32.36L26.14 29.72C26.14 29.72 28.61 15.11 34.42 17.26Z" fill="#3B2645"/>
<path d="M67.13 67.33L43.41 99.62L22.17 66.45C24.38 65.67 26.49 64.96 28.26 64.36C31.26 63.36 33.31 62.68 33.31 62.68L33.58 60.5C36.1092 60.7315 38.5653 61.4731 40.8 62.68C41.6713 63.1653 42.4862 63.7455 43.23 64.41C44.1943 63.7735 45.1961 63.1958 46.23 62.68C48.4092 61.5173 50.7807 60.7585 53.23 60.44L53.57 62.68C53.57 62.68 55.84 63.42 59.09 64.53C61.38 65.33 64.24 66.3 67.13 67.33Z" fill="white"/>
<path d="M85.57 100.31H1.25C1.25 100.31 1.25 75.57 5.09 73.13C7.15 71.82 15.2 68.88 22.17 66.45C23.27 66.06 24.33 65.69 25.36 65.35L28.26 64.35C29.9 67.65 43.66 98.24 43.66 98.24C44.08 97.3 57.37 67.82 59.04 64.52L62.04 65.52C63.67 66.08 65.42 66.7 67.17 67.32C73.47 69.54 79.96 71.97 81.79 73.12C85.57 75.57 85.57 100.31 85.57 100.31Z" fill="#3B2645"/>
<path d="M27.05 86L31.39 78.64L22.72 77.56L25.36 65.38L28.26 64.38C29.9 67.66 47 92.77 47 92.77L27.05 86Z" fill="#5A4963"/>
<path d="M56 78.79L60.34 86.16L43.66 98.25C43.66 98.25 38.1 95.45 39.91 95.25C37.65 96.05 57.37 67.83 59 64.53L62 65.53L64.64 77.72L56 78.79Z" fill="#5A4963"/>
<path d="M43.67 71.68C43.5289 71.5632 43.3531 71.4964 43.17 71.49H43.07C42.8048 71.49 42.5504 71.5954 42.3629 71.7829C42.1754 71.9704 42.07 72.2248 42.07 72.49V72.58C42.0724 72.7492 42.1177 72.915 42.2017 73.0619C42.2856 73.2088 42.4055 73.332 42.55 73.42C42.6952 73.5083 42.8593 73.5607 43.0287 73.573C43.1982 73.5852 43.3681 73.557 43.5245 73.4905C43.6808 73.4241 43.8191 73.3213 43.9279 73.1908C44.0367 73.0603 44.1128 72.9058 44.15 72.74C44.2064 72.5351 44.1892 72.3169 44.1016 72.1233C44.0139 71.9296 43.8612 71.7728 43.67 71.68Z" fill="#B8C3E3"/>
<path d="M43.67 80.5C43.5324 80.3761 43.3551 80.3052 43.17 80.3H43.07C42.8048 80.3 42.5504 80.4054 42.3629 80.5929C42.1754 80.7804 42.07 81.0348 42.07 81.3V81.39C42.0724 81.5592 42.1177 81.725 42.2017 81.8719C42.2856 82.0188 42.4055 82.142 42.55 82.23C42.6952 82.3183 42.8593 82.3707 43.0287 82.383C43.1982 82.3952 43.3681 82.367 43.5245 82.3005C43.6808 82.2341 43.8191 82.1313 43.9279 82.0008C44.0367 81.8703 44.1128 81.7158 44.15 81.55C44.2079 81.3465 44.1913 81.129 44.1034 80.9366C44.0154 80.7442 43.8618 80.5894 43.67 80.5Z" fill="#B8C3E3"/>
<path d="M49.92 59.32L43.16 61.62L36.4 59.32V68.04L43.16 65.6L49.92 68.04V59.32Z" fill="#3B2645"/>
</g>
<defs>
<clipPath id="clip0_8:650">
<rect width="89.01" height="100.35" fill="white"/>
</clipPath>
</defs>
</svg>
