<svg width="90" height="103" viewBox="0 0 90 103" fill="none" xmlns="http://www.w3.org/2000/svg">
<g clip-path="url(#clip0_8:545)">
<path d="M26.66 33.65C26.66 33.65 25.25 25.82 26.89 20.33C27.241 19.1712 27.8743 18.1177 28.733 17.2642C29.5918 16.4107 30.6491 15.7839 31.81 15.44C31.81 15.44 32.68 9.94999 43.94 9.53999C55.2 9.12999 64.13 13.92 61.94 33.68L59.12 38.15L43.83 23.38C43.83 23.38 30.73 31.86 29.58 35.88C28.43 39.9 26.66 33.65 26.66 33.65Z" fill="#8C3D3D"/>
<path d="M86.1 102.11H1.77002C1.77002 102.11 1.77002 89.46 3.17002 81.35C3.74002 78.13 4.51002 75.63 5.60002 74.94C8.32792 73.5398 11.1556 72.3432 14.06 71.36C16.79 70.36 19.84 69.26 22.7 68.27C28.65 66.19 33.83 64.49 33.83 64.49H54C54 64.49 59.28 66.23 65.31 68.32L65.46 68.37C68.38 69.37 71.46 70.49 74.2 71.52C76.9468 72.4626 79.6207 73.6057 82.2 74.94C83.42 75.7 84.2 78.72 84.81 82.49C85.6382 88.9977 86.069 95.5499 86.1 102.11Z" fill="#F5A784"/>
<path d="M54.04 64.49L44.55 66.09V66.35L43.76 66.22L42.98 66.35V66.09L33.83 64.49L34.32 60.49L35.41 51.71H52.12L53.05 57.94L54.04 64.49Z" fill="#F5A784"/>
<path d="M53.05 57.94C45.82 61.25 38.2 60.94 34.32 60.49L35.41 51.71H52.12L53.05 57.94Z" fill="#E0855C"/>
<path d="M58.44 37.35C58.44 37.35 59.83 31.84 63.3 34.28C66.77 36.72 63.3 44.77 58.42 44.73C58.42 44.73 57.11 39.33 58.44 37.35Z" fill="#F5A784"/>
<path d="M62.1 36.85C61.3921 37.1775 60.782 37.6843 60.33 38.32C59.7974 38.8746 59.3884 39.5358 59.13 40.26C59.07 40.49 59.39 40.58 59.52 40.43C59.88 40.01 60.16 39.51 60.52 39.06C60.797 39.3461 61.1406 39.5591 61.52 39.68C61.82 39.76 61.99 39.37 61.84 39.15C61.6111 38.8726 61.3199 38.6533 60.99 38.51C61.4886 38.1123 61.9535 37.6741 62.38 37.2C62.4123 37.1592 62.4298 37.1087 62.4296 37.0567C62.4295 37.0047 62.4117 36.9542 62.3792 36.9136C62.3468 36.873 62.3015 36.8446 62.2507 36.8331C62.2 36.8215 62.1469 36.8275 62.1 36.85Z" fill="#E0855C"/>
<path d="M29.5 36.83C29.5 36.83 28.1 31.31 24.64 33.76C21.18 36.21 24.64 44.25 29.52 44.21C29.52 44.21 30.82 38.81 29.5 36.83Z" fill="#F5A784"/>
<path d="M25.83 36.33C26.537 36.6544 27.1471 37.1576 27.6 37.79C28.1395 38.3641 28.5518 39.0456 28.81 39.79C28.86 40.01 28.55 40.11 28.42 39.96C28.06 39.53 27.78 39.04 27.42 38.59C27.1398 38.8721 26.7973 39.0844 26.42 39.21C26.12 39.29 25.95 38.9 26.1 38.68C26.3395 38.3827 26.6486 38.1492 27 38C26.5093 37.5969 26.0481 37.1591 25.62 36.69C25.5898 36.6553 25.5712 36.612 25.5669 36.5662C25.5626 36.5204 25.5727 36.4744 25.5959 36.4347C25.6191 36.395 25.6541 36.3635 25.6961 36.3447C25.7381 36.3259 25.7849 36.3208 25.83 36.33Z" fill="#E0855C"/>
<path d="M59.15 30.47C55.9 14.87 43.94 16 43.94 16C43.94 16 32 14.87 28.72 30.47C27.4523 36.2665 27.9361 42.309 30.11 47.83C32.22 53 36.27 58.59 43.94 58.59C51.61 58.59 55.65 53 57.76 47.83C59.9392 42.3103 60.4232 36.2661 59.15 30.47Z" fill="#F5A784"/>
<path d="M44.79 43C44.09 42.93 42.52 43.42 42.16 42.69C41.8 41.96 42.79 38.33 42.92 37.69C43.4582 35.5035 43.8821 33.2905 44.19 31.06C44.19 31.0299 44.1796 31.0008 44.1606 30.9776C44.1415 30.9543 44.115 30.9384 44.0855 30.9325C44.0561 30.9266 44.0254 30.9311 43.9989 30.9452C43.9724 30.9594 43.9516 30.9823 43.94 31.01C42.52 34.72 42.14 39.24 41.36 43.14C41.3474 43.1916 41.3471 43.2455 41.3591 43.2973C41.3711 43.3491 41.3951 43.3974 41.4291 43.4382C41.4632 43.4791 41.5063 43.5114 41.5551 43.5325C41.6039 43.5537 41.6569 43.5631 41.71 43.56C42.71 43.49 43.71 43.66 44.71 43.61C45.08 43.59 45.15 43 44.79 43Z" fill="#E0855C"/>
<path d="M37.3 36C37.3 36 35.99 36.49 36.19 34.16C36.37 32 37.3 32.3 37.3 32.3C37.3 32.3 38.22 32.3 38.08 34.12C37.94 35.94 37.3 36 37.3 36Z" fill="#3B2645"/>
<path d="M49.85 36C49.85 36 48.54 36.49 48.74 34.16C48.92 32.07 49.85 32.35 49.85 32.35C49.85 32.35 50.77 32.35 50.63 34.17C50.49 35.99 49.85 36 49.85 36Z" fill="#3B2645"/>
<path d="M39.07 29.08C37.94 28.51 35.82 28.35 35 29.53C34.9706 29.5828 34.9555 29.6424 34.9559 29.7028C34.9564 29.7633 34.9726 29.8226 35.0028 29.8749C35.033 29.9273 35.0762 29.971 35.1283 30.0016C35.1804 30.0323 35.2396 30.049 35.3 30.05C35.86 30.05 36.36 29.75 36.92 29.71C37.5219 29.6845 38.1231 29.7762 38.69 29.98C38.8021 30.0009 38.9181 29.9828 39.0185 29.9288C39.119 29.8748 39.1979 29.788 39.2423 29.683C39.2866 29.5779 39.2938 29.4608 39.2624 29.3511C39.2311 29.2414 39.1632 29.1458 39.07 29.08Z" fill="#3B2645"/>
<path d="M51.62 29.08C50.49 28.51 48.38 28.35 47.55 29.53C47.5206 29.5828 47.5054 29.6424 47.5059 29.7028C47.5064 29.7633 47.5225 29.8226 47.5528 29.8749C47.583 29.9273 47.6262 29.971 47.6783 30.0016C47.7304 30.0323 47.7896 30.049 47.85 30.05C48.42 30.05 48.91 29.75 49.48 29.71C50.0787 29.6837 50.6767 29.7755 51.24 29.98C51.357 30.0188 51.4843 30.0121 51.5966 29.9613C51.7088 29.9104 51.7978 29.8191 51.8457 29.7055C51.8937 29.592 51.8971 29.4645 51.8552 29.3486C51.8134 29.2327 51.7294 29.1368 51.62 29.08Z" fill="#3B2645"/>
<path d="M35 19C35 19 42.13 20.46 47 17.77C51.87 15.08 60 28.93 59.75 34.68L61.27 28.13L54 14.29L40.1 13.29C40.1 13.29 33.61 16.75 35 19Z" fill="#8C3D3D"/>
<path d="M35 19C31.7379 23.5243 29.4311 28.6654 28.22 34.11L26.71 31.46C26.71 31.46 29.14 16.88 35 19Z" fill="#8C3D3D"/>
<path d="M84.87 82.49C79 88.67 72.44 95.84 72.37 102.11H16.05C15.95 94.55 8.78004 87.11 3.17004 81.35C3.74004 78.13 4.51004 75.63 5.60004 74.94C8.32795 73.5398 11.1557 72.3432 14.06 71.36C16.79 70.36 19.84 69.26 22.7 68.27C27.1 82.27 40.57 82.79 43.84 82.7C43.84 82.7 43.98 82.7 44.21 82.7H44.56C47.75 82.83 60.62 81.37 65.35 68.36L65.5 68.41C68.42 69.41 71.5 70.53 74.24 71.56C76.9868 72.5026 79.6607 73.6457 82.24 74.98C83.48 75.7 84.3101 78.72 84.87 82.49Z" fill="#9669A4"/>
<path d="M47 46.14C46.2616 46.9988 45.3044 47.6416 44.23 48C43.1062 48.1587 41.9617 48.0803 40.87 47.77C40.8422 47.7541 40.8091 47.7499 40.7782 47.7583C40.7473 47.7668 40.7209 47.7871 40.705 47.815C40.6891 47.8428 40.6849 47.8759 40.6933 47.9068C40.7018 47.9378 40.7222 47.9641 40.75 47.98C42.44 50.08 46.75 48.82 47.62 46.53C47.76 46.13 47.27 45.92 47 46.14Z" fill="#E0855C"/>
<path d="M37.16 38.38H36.7C33.92 38.22 32.3 36.54 32.03 33.52C32.006 33.2721 32.0346 33.022 32.1139 32.7859C32.1931 32.5498 32.3213 32.3331 32.49 32.15C32.6594 31.9663 32.865 31.8199 33.094 31.72C33.323 31.6202 33.5702 31.5691 33.82 31.57H40.15C40.3978 31.5706 40.6428 31.6224 40.8697 31.7221C41.0965 31.8218 41.3004 31.9673 41.4684 32.1494C41.6364 32.3315 41.7651 32.5463 41.8462 32.7805C41.9274 33.0146 41.9593 33.263 41.94 33.51C41.82 34.73 41.48 38.38 37.16 38.38ZM33.82 32.31C33.677 32.3088 33.5354 32.3383 33.4048 32.3964C33.2741 32.4546 33.1575 32.5401 33.0627 32.6472C32.9679 32.7543 32.8972 32.8805 32.8553 33.0173C32.8135 33.154 32.8014 33.2982 32.82 33.44C33.06 36.08 34.4 37.44 36.82 37.62C40.4 37.82 41.08 35.49 41.27 33.43C41.2845 33.289 41.2687 33.1465 41.2239 33.012C41.1791 32.8776 41.1062 32.7542 41.01 32.65C40.913 32.5395 40.7928 32.4517 40.658 32.3929C40.5232 32.3341 40.3771 32.3058 40.23 32.31H33.82Z" fill="#3B2645"/>
<path d="M49.36 38.38H48.9C46.12 38.22 44.5 36.54 44.23 33.52C44.2048 33.2724 44.2319 33.0223 44.3094 32.7858C44.3868 32.5493 44.513 32.3317 44.6798 32.147C44.8466 31.9623 45.0503 31.8146 45.2777 31.7135C45.5051 31.6124 45.7512 31.5601 46 31.56H52.33C52.5823 31.5583 52.8322 31.61 53.0631 31.7117C53.294 31.8134 53.5009 31.9628 53.67 32.15C53.8343 32.3316 53.9592 32.5454 54.0367 32.7778C54.1141 33.0102 54.1425 33.2561 54.12 33.5C54 34.73 53.68 38.38 49.36 38.38ZM46 32.31C45.8547 32.3073 45.7105 32.3363 45.5775 32.395C45.4445 32.4538 45.3259 32.5408 45.23 32.65C45.1307 32.7545 45.0552 32.8791 45.0086 33.0155C44.962 33.1518 44.9454 33.2966 44.96 33.44C45.2 36.08 46.53 37.44 48.96 37.62C52.53 37.83 53.22 35.49 53.41 33.43C53.4244 33.289 53.4087 33.1465 53.3639 33.012C53.3191 32.8776 53.2462 32.7542 53.15 32.65C53.053 32.5395 52.9328 32.4517 52.798 32.3929C52.6632 32.3341 52.517 32.3058 52.37 32.31H46Z" fill="#3B2645"/>
<path d="M44.83 32.71H41.59V33.46H44.83V32.71Z" fill="#3B2645"/>
<path d="M33 11.77C34.8048 10.2493 36.9009 9.11278 39.16 8.43C43.73 7.07 60.04 8.23 62.06 6.48C63.59 11.85 59.86 14.23 55.51 17.73C50.72 21.59 43.91 21.97 37.92 20.58C36.8741 20.2678 35.7912 20.0962 34.7 20.07C33.8498 20.2062 32.9848 20.223 32.13 20.12C28.06 19.11 31.24 13.26 33 11.77Z" fill="#8C3D3D"/>
</g>
<defs>
<clipPath id="clip0_8:545">
<rect width="89.01" height="102.11" fill="white"/>
</clipPath>
</defs>
</svg>
