<svg width="90" height="103" viewBox="0 0 90 103" fill="none" xmlns="http://www.w3.org/2000/svg">
<g clip-path="url(#clip0_8:968)">
<path d="M26.66 33.65C26.66 33.65 25.25 25.82 26.89 20.34C27.2396 19.1794 27.8722 18.1239 28.7311 17.2685C29.5899 16.4132 30.648 15.7848 31.81 15.44C31.81 15.44 32.68 9.95 43.94 9.54C55.2 9.13 64.13 13.92 61.94 33.68L59.12 38.15L43.83 23.38C43.83 23.38 30.73 31.86 29.58 35.88C28.43 39.9 26.66 33.65 26.66 33.65Z" fill="#3B2645"/>
<path d="M86.1 102.12H1.77002C1.77002 102.12 1.77002 77.38 5.60002 74.94L5.78002 74.82C7.98466 73.7037 10.2594 72.7316 12.59 71.91C13.66 71.5 14.82 71.07 16 70.64C17.45 70.11 19 69.56 20.46 69.04C24.46 67.62 28.46 66.29 30.97 65.44L31.3 65.33L32.2 65.03L33.45 64.61L33.83 64.49H54H54.06L54.47 64.62H54.62L55.86 65.03L56.41 65.22H56.5C56.6229 65.2509 56.7432 65.291 56.86 65.34L57.45 65.54L57.66 65.61C60.15 66.44 63.66 67.61 67.2 68.88C69.32 69.63 71.47 70.39 73.46 71.14L75.07 71.75C77.5286 72.5962 79.9189 73.6292 82.22 74.84C83 75.34 83.62 76.74 84.1 78.67C86.1 86.39 86.1 102.12 86.1 102.12Z" fill="#F5A784"/>
<path d="M54.0401 64.49L44.5501 66.09V66.35L43.7601 66.23L42.9801 66.35V66.09L33.8301 64.49L34.3201 60.5L35.4101 51.72H52.1201L53.0501 57.94L54.0401 64.49Z" fill="#F5A784"/>
<path d="M53.0501 57.94C45.8201 61.25 38.2001 60.94 34.3201 60.5L35.4101 51.71H52.1201L53.0501 57.94Z" fill="#E0855C"/>
<path d="M58.44 37.35C58.44 37.35 59.83 31.84 63.3 34.28C66.77 36.72 63.3 44.78 58.42 44.73C58.42 44.73 57.11 39.33 58.44 37.35Z" fill="#F5A784"/>
<path d="M62.1 36.85C61.3921 37.1776 60.7819 37.6843 60.33 38.32C59.7974 38.8746 59.3884 39.5358 59.13 40.26C59.07 40.49 59.39 40.58 59.52 40.43C59.88 40.01 60.16 39.52 60.52 39.06C60.7991 39.3457 61.1417 39.5616 61.52 39.69C61.82 39.76 61.99 39.38 61.84 39.15C61.6111 38.8726 61.3198 38.6533 60.99 38.51C61.4909 38.1151 61.9561 37.6767 62.38 37.2C62.4122 37.1592 62.4297 37.1087 62.4296 37.0567C62.4294 37.0047 62.4117 36.9543 62.3792 36.9136C62.3467 36.873 62.3014 36.8446 62.2507 36.8331C62.2 36.8215 62.1468 36.8275 62.1 36.85Z" fill="#E0855C"/>
<path d="M29.5001 36.83C29.5001 36.83 28.1001 31.32 24.6401 33.76C21.1801 36.2 24.6401 44.25 29.5201 44.21C29.5201 44.21 30.8201 38.81 29.5001 36.83Z" fill="#F5A784"/>
<path d="M25.83 36.33C26.5397 36.6548 27.1505 37.162 27.6 37.8C28.1355 38.3542 28.5478 39.0153 28.81 39.74C28.86 39.97 28.55 40.06 28.42 39.91C28.06 39.49 27.78 38.99 27.42 38.54C27.1398 38.8221 26.7973 39.0345 26.42 39.16C26.12 39.24 25.95 38.85 26.1 38.63C26.3452 38.351 26.6539 38.1349 27 38C26.5069 37.5996 26.0455 37.1616 25.62 36.69C25.5898 36.6553 25.5712 36.612 25.5669 36.5662C25.5626 36.5204 25.5727 36.4744 25.5959 36.4347C25.6191 36.395 25.6541 36.3635 25.6961 36.3447C25.7381 36.3259 25.7849 36.3208 25.83 36.33Z" fill="#E0855C"/>
<path d="M59.1501 30.47C55.9001 14.87 43.9401 16 43.9401 16C43.9401 16 32.0001 14.87 28.7201 30.47C27.4518 36.2665 27.9356 42.3092 30.1101 47.83C32.2201 53 36.2701 58.6 43.9401 58.6C51.6101 58.6 55.6501 53 57.7601 47.83C59.9393 42.3103 60.4232 36.2662 59.1501 30.47Z" fill="#F5A784"/>
<path d="M44.79 43C44.09 42.93 42.52 43.42 42.16 42.69C41.8 41.96 42.79 38.34 42.92 37.69C43.4572 35.5 43.8811 33.2837 44.19 31.05C44.19 31.02 44.1796 30.9908 44.1606 30.9676C44.1415 30.9443 44.115 30.9284 44.0855 30.9225C44.0561 30.9166 44.0254 30.9211 43.9989 30.9353C43.9724 30.9494 43.9516 30.9723 43.94 31C42.51 34.71 42.14 39.23 41.36 43.13C41.3474 43.1817 41.3471 43.2355 41.3591 43.2873C41.3711 43.3391 41.3951 43.3874 41.4291 43.4282C41.4632 43.4691 41.5063 43.5014 41.5551 43.5225C41.6039 43.5437 41.6569 43.5531 41.71 43.55C42.71 43.48 43.71 43.65 44.71 43.6C45.08 43.59 45.15 43 44.79 43Z" fill="#E0855C"/>
<path d="M39 47.46H48.61C48.61 47.46 46.81 50.86 43.8 50.86C40.79 50.86 39 47.46 39 47.46Z" fill="white"/>
<path d="M37.3 36C37.3 36 35.99 36.49 36.19 34.16C36.37 32 37.3 32.3 37.3 32.3C37.3 32.3 38.22 32.3 38.08 34.13C37.94 35.96 37.3 36 37.3 36Z" fill="#3B2645"/>
<path d="M49.85 36C49.85 36 48.54 36.49 48.74 34.16C48.92 32.07 49.85 32.35 49.85 32.35C49.85 32.35 50.77 32.35 50.63 34.18C50.49 36.01 49.85 36 49.85 36Z" fill="#3B2645"/>
<path d="M39.07 29.08C37.94 28.51 35.82 28.35 35 29.53C34.9713 29.5836 34.9565 29.6436 34.9572 29.7044C34.9578 29.7652 34.9739 29.8248 35.0039 29.8777C35.0338 29.9307 35.0767 29.9751 35.1285 30.007C35.1803 30.0389 35.2393 30.0571 35.3 30.06C35.86 30.06 36.36 29.75 36.92 29.71C37.522 29.6845 38.1231 29.7762 38.69 29.98C38.807 30.0188 38.9343 30.0121 39.0466 29.9613C39.1589 29.9104 39.2478 29.8191 39.2958 29.7055C39.3437 29.592 39.3471 29.4645 39.3053 29.3486C39.2634 29.2327 39.1794 29.1368 39.07 29.08Z" fill="#3B2645"/>
<path d="M51.62 29.08C50.49 28.51 48.38 28.35 47.55 29.53C47.5212 29.5836 47.5064 29.6436 47.5071 29.7044C47.5078 29.7652 47.5238 29.8248 47.5538 29.8777C47.5837 29.9307 47.6266 29.9751 47.6784 30.007C47.7302 30.0389 47.7892 30.0571 47.85 30.06C48.42 30.06 48.91 29.75 49.48 29.71C50.0787 29.6837 50.6767 29.7755 51.24 29.98C51.3569 30.0188 51.4843 30.0121 51.5965 29.9613C51.7088 29.9104 51.7978 29.8191 51.8457 29.7055C51.8936 29.592 51.897 29.4645 51.8552 29.3486C51.8134 29.2327 51.7294 29.1368 51.62 29.08Z" fill="#3B2645"/>
<path d="M35 19C35 19 42.13 20.45 47 17.76C51.87 15.07 60 28.94 59.75 34.68L61.27 28.14L54 14.29L40.1 13.29C40.1 13.29 33.61 16.75 35 19Z" fill="#3B2645"/>
<path d="M35 19C31.7369 23.52 29.4299 28.6581 28.22 34.1L26.71 31.45C26.71 31.45 29.14 16.88 35 19Z" fill="#3B2645"/>
<path d="M5.78003 74.82C9.33003 81.48 18.71 92.16 19.14 102.12H69.56C69.8 96 78.69 87.21 84.14 78.77C83.66 76.84 83.04 75.44 82.26 74.94C79.959 73.7292 77.5686 72.6962 75.11 71.85L73.5 71.24C71.5 70.5 69.36 69.73 67.24 68.98C63.67 67.72 60.24 66.54 57.7 65.71L57.49 65.64L56.9 65.44C56.7832 65.391 56.6629 65.3509 56.54 65.32H56.45L55.9 65.13L54.66 64.72H54.51L54.11 64.59C49.85 65.76 41.82 67.21 33.45 64.69L32.2 65L31.3 65.3L30.97 65.41L30.47 65.57L5.78003 74.82Z" fill="#2F8DBD"/>
<path d="M57.49 65.64L44 94.19L30.1 65.73L33.45 64.61C41.82 67.13 49.85 65.68 54.1 64.51C54.42 64.61 55.67 65 57.49 65.64Z" fill="#23698C"/>
</g>
<defs>
<clipPath id="clip0_8:968">
<rect width="89.01" height="102.12" fill="white"/>
</clipPath>
</defs>
</svg>
