<svg width="90" height="103" viewBox="0 0 90 103" fill="none" xmlns="http://www.w3.org/2000/svg">
<g clip-path="url(#clip0_8:389)">
<path d="M26.14 33.65C26.14 33.65 24.72 25.82 26.36 20.33C26.711 19.1712 27.3443 18.1178 28.203 17.2642C29.0618 16.4107 30.1191 15.7839 31.28 15.44C31.28 15.44 32.15 9.95 43.41 9.54C54.67 9.13 63.6 13.92 61.41 33.68L58.6 38.15L43.31 23.38C43.31 23.38 30.21 31.86 29.05 35.88C27.89 39.9 26.14 33.65 26.14 33.65Z" fill="#8C3D3D"/>
<path d="M85.57 102.12H1.25C1.25 102.12 1.25 77.39 5.07 74.94C7.68715 73.6073 10.3937 72.4579 13.17 71.5L15.44 70.66C17.69 69.84 20.06 69 22.32 68.21C28.22 66.21 33.32 64.49 33.32 64.49H53.51C53.51 64.49 59.81 66.56 66.51 68.92C68.62 69.65 70.76 70.42 72.76 71.17C73.82 71.56 74.86 71.94 75.82 72.31C77.8537 73.044 79.8321 73.9229 81.74 74.94C85.57 77.39 85.57 102.12 85.57 102.12Z" fill="#F5A784"/>
<path d="M53.51 64.49L44.0201 66.08V66.35L43.23 66.22L42.4501 66.35V66.08L33.3 64.49L33.8 60.49L34.8801 51.71H51.59L52.5201 57.94L53.51 64.49Z" fill="#F5A784"/>
<path d="M52.5201 57.94C45.2901 61.25 37.67 60.94 33.8 60.49L34.8801 51.71H51.59L52.5201 57.94Z" fill="#E0855C"/>
<path d="M57.91 37.35C57.91 37.35 59.31 31.84 62.77 34.28C66.23 36.72 62.77 44.77 57.89 44.73C57.89 44.73 56.59 39.33 57.91 37.35Z" fill="#F5A784"/>
<path d="M61.58 36.85C60.8703 37.1748 60.2595 37.682 59.81 38.32C59.2745 38.8742 58.8622 39.5353 58.6 40.26C58.55 40.49 58.86 40.58 58.99 40.43C59.35 40.01 59.63 39.51 59.99 39.06C60.2702 39.3421 60.6127 39.5545 60.99 39.68C61.29 39.76 61.47 39.37 61.31 39.15C61.085 38.8728 60.797 38.6533 60.47 38.51C60.9641 38.1071 61.4286 37.6693 61.86 37.2C61.8923 37.1592 61.9098 37.1087 61.9096 37.0567C61.9095 37.0047 61.8917 36.9543 61.8592 36.9136C61.8267 36.873 61.7814 36.8446 61.7307 36.8331C61.68 36.8215 61.6269 36.8275 61.58 36.85Z" fill="#E0855C"/>
<path d="M29 36.83C29 36.83 27.61 31.31 24.14 33.76C20.67 36.21 24.14 44.25 29.02 44.21C29 44.21 30.3 38.81 29 36.83Z" fill="#F5A784"/>
<path d="M25.31 36.33C26.0153 36.6571 26.6248 37.1598 27.08 37.79C27.6167 38.3645 28.0257 39.0461 28.28 39.79C28.34 40.01 28.02 40.11 27.89 39.96C27.53 39.53 27.25 39.04 26.89 38.59C26.613 38.8761 26.2695 39.0891 25.89 39.21C25.59 39.29 25.42 38.9 25.57 38.68C25.7989 38.4026 26.0902 38.1833 26.42 38.04C25.9239 37.6395 25.4592 37.2016 25.03 36.73C24.977 36.6929 24.9409 36.6362 24.9296 36.5724C24.9184 36.5087 24.9329 36.443 24.97 36.39C25.0072 36.337 25.0638 36.3008 25.1276 36.2896C25.1914 36.2783 25.257 36.2929 25.31 36.33Z" fill="#E0855C"/>
<path d="M58.63 30.47C55.37 14.87 43.41 16 43.41 16C43.41 16 31.41 14.91 28.2 30.51C26.9268 36.3062 27.4108 42.3503 29.59 47.87C31.7 53 35.75 58.59 43.41 58.59C51.07 58.59 55.13 53 57.24 47.83C59.4139 42.309 59.8977 36.2665 58.63 30.47Z" fill="#F5A784"/>
<path d="M44.27 43C43.57 42.93 42 43.42 41.63 42.69C41.26 41.96 42.26 38.33 42.39 37.69C42.9329 35.5046 43.3569 33.2913 43.66 31.06C43.66 30.94 43.46 30.88 43.42 31.01C41.99 34.72 41.61 39.24 40.83 43.14C40.8195 43.1914 40.8206 43.2446 40.8335 43.2955C40.8463 43.3464 40.8704 43.3938 40.904 43.4341C40.9376 43.4745 40.9799 43.5067 41.0276 43.5285C41.0754 43.5503 41.1275 43.5611 41.18 43.56C42.18 43.49 43.18 43.66 44.18 43.61C44.55 43.59 44.63 43 44.27 43Z" fill="#E0855C"/>
<path d="M38.5 47.45H48.12C48.12 47.45 46.31 50.86 43.31 50.86C40.31 50.86 38.5 47.45 38.5 47.45Z" fill="white"/>
<path d="M36.78 36C36.78 36 35.46 36.49 35.66 34.16C35.84 32.07 36.78 32.35 36.78 32.35C36.78 32.35 37.69 32.35 37.55 34.17C37.41 35.99 36.78 36 36.78 36Z" fill="#3B2645"/>
<path d="M49.33 36C49.33 36 48.01 36.49 48.21 34.16C48.39 32.07 49.33 32.35 49.33 32.35C49.33 32.35 50.24 32.35 50.1 34.17C49.96 35.99 49.33 36 49.33 36Z" fill="#3B2645"/>
<path d="M38.54 29.08C37.41 28.51 35.3 28.35 34.47 29.53C34.4402 29.5836 34.425 29.644 34.4259 29.7053C34.4269 29.7666 34.4439 29.8266 34.4753 29.8792C34.5067 29.9319 34.5513 29.9754 34.6048 30.0054C34.6583 30.0353 34.7187 30.0507 34.78 30.05C35.34 30.05 35.78 29.75 36.4 29.71C36.9987 29.6837 37.5967 29.7755 38.16 29.98C38.277 30.0188 38.4043 30.0121 38.5165 29.9613C38.6288 29.9104 38.7178 29.8191 38.7657 29.7055C38.8136 29.592 38.817 29.4645 38.7752 29.3486C38.7334 29.2327 38.6494 29.1368 38.54 29.08Z" fill="#3B2645"/>
<path d="M51.09 29.08C49.96 28.51 47.85 28.35 47.03 29.53C47.0007 29.5828 46.9855 29.6424 46.986 29.7028C46.9865 29.7633 47.0026 29.8226 47.0328 29.875C47.063 29.9273 47.1063 29.971 47.1584 30.0016C47.2105 30.0323 47.2696 30.049 47.3301 30.05C47.8901 30.05 48.39 29.75 48.95 29.71C49.552 29.6845 50.1531 29.7762 50.7201 29.98C50.8356 30.0121 50.9588 30.0008 51.0666 29.9481C51.1743 29.8954 51.2589 29.8051 51.3045 29.6942C51.3501 29.5833 51.3535 29.4596 51.3139 29.3464C51.2744 29.2332 51.1948 29.1384 51.09 29.08Z" fill="#3B2645"/>
<path d="M34.42 19C31.1631 23.5261 28.8599 28.6668 27.65 34.11L26.14 31.46C26.14 31.46 28.61 16.88 34.42 19Z" fill="#8C3D3D"/>
<path d="M81.73 74.94C79.8221 73.9229 77.8437 73.044 75.81 72.31C74.81 71.94 73.81 71.56 72.75 71.17C70.75 70.42 68.61 69.65 66.5 68.92C61.5 82.2 48.2 82.69 44.91 82.61C44.91 82.61 44.76 82.61 44.53 82.61H44.15C40.79 82.73 27.15 82.23 22.32 68.25C20.06 69.04 17.69 69.88 15.44 70.7L13.17 71.54C10.3937 72.4979 7.68715 73.6473 5.07 74.98C1.25 77.43 1.25 102.16 1.25 102.16H85.57C85.57 102.16 85.57 77.39 81.73 74.94Z" fill="#DADEEA"/>
<path d="M34.42 18.43C34.42 18.43 60.71 30.71 64.17 12.83C64.17 12.83 58.67 15.13 49.76 12.83C40.85 10.53 32.44 14.05 34.42 18.43Z" fill="#8C3D3D"/>
<path d="M42.66 44.21C42.66 44.21 37.17 43.21 36.03 47.45H51C51 47.45 51 42.75 42.66 44.21Z" fill="#8C3D3D"/>
</g>
<defs>
<clipPath id="clip0_8:389">
<rect width="89.01" height="102.12" fill="white"/>
</clipPath>
</defs>
</svg>
